<?xml version="1.0" encoding="UTF-8" standalone="no"?>
<svg width="114px" height="102px" viewBox="0 0 114 102" version="1.1" xmlns="http://www.w3.org/2000/svg" xmlns:xlink="http://www.w3.org/1999/xlink" xmlns:sketch="http://www.bohemiancoding.com/sketch/ns">
    <!-- Generator: Sketch 3.3.2 (12043) - http://www.bohemiancoding.com/sketch -->
    <title>dashboard</title>
    <desc>Created with Sketch.</desc>
    <defs></defs>
    <g id="Page-1" stroke="none" stroke-width="1" fill="none" fill-rule="evenodd" sketch:type="MSPage">
        <g id="Home" sketch:type="MSArtboardGroup" transform="translate(-1028.000000, -516.000000)" stroke="#48C5CE" stroke-width="2" stroke-linecap="round" stroke-linejoin="round">
            <path d="M1029,517 L1140.111,517 L1140.111,617 L1029,617 L1029,517 Z M1037.333,525.439 L1048.444,525.439 L1048.444,530.995 L1037.333,530.995 L1037.333,525.439 Z M1054,525.439 L1065.111,525.439 L1065.111,530.995 L1054,530.995 L1054,525.439 Z M1070.666,525.439 L1081.777,525.439 L1081.777,530.995 L1070.666,530.995 L1070.666,525.439 Z M1087.333,525.439 L1098.444,525.439 L1098.444,530.995 L1087.333,530.995 L1087.333,525.439 Z M1104,525.439 L1115.111,525.439 L1115.111,530.995 L1104,530.995 L1104,525.439 Z M1120.666,525.439 L1131.777,525.439 L1131.777,530.995 L1120.666,530.995 L1120.666,525.439 Z M1111.274,560.506 C1110.586,560.506 1109.898,560.235 1109.373,559.692 L1095.83,545.703 L1083.029,558.924 C1081.979,560.01 1080.277,560.01 1079.227,558.924 L1067.934,547.26 L1060.244,555.203 C1059.194,556.288 1057.492,556.288 1056.441,555.203 L1049.92,548.467 L1041.924,556.727 C1040.873,557.812 1039.171,557.812 1038.121,556.727 C1037.07,555.642 1037.07,553.884 1038.121,552.799 L1048.019,542.575 C1049.07,541.49 1050.771,541.49 1051.822,542.575 L1058.343,549.311 L1066.033,541.368 C1067.083,540.283 1068.785,540.283 1069.835,541.368 L1081.128,553.033 L1093.928,539.811 C1094.979,538.726 1096.681,538.726 1097.731,539.811 L1111.274,553.8 L1127.187,537.364 C1128.237,536.279 1129.939,536.279 1130.99,537.364 C1132.04,538.449 1132.04,540.207 1130.99,541.292 L1113.176,559.692 C1112.651,560.235 1111.963,560.506 1111.274,560.506 L1111.274,560.506 Z M1079.897,567.295 L1102.119,567.295 L1102.119,572.85 L1079.897,572.85 L1079.897,567.295 Z M1079.897,578.406 L1102.119,578.406 L1102.119,583.962 L1079.897,583.962 L1079.897,578.406 Z M1079.897,589.517 L1102.119,589.517 L1102.119,595.072 L1079.897,595.072 L1079.897,589.517 Z M1107.674,567.295 L1129.896,567.295 L1129.896,572.85 L1107.674,572.85 L1107.674,567.295 Z M1107.674,578.406 L1129.896,578.406 L1129.896,583.962 L1107.674,583.962 L1107.674,578.406 Z M1107.674,589.517 L1129.896,589.517 L1129.896,595.072 L1107.674,595.072 L1107.674,589.517 Z M1072.547,581.184 C1072.547,590.388 1065.085,597.85 1055.881,597.85 C1046.676,597.85 1039.214,590.388 1039.214,581.184 C1039.214,571.979 1046.676,564.517 1055.881,564.517 C1065.085,564.517 1072.547,571.979 1072.547,581.184 L1072.547,581.184 Z M1037.333,602.88 L1131.777,602.88 L1131.777,608.436 L1037.333,608.436 L1037.333,602.88 Z M1055.881,597.85 C1065.085,597.85 1072.547,590.388 1072.547,581.184 L1039.214,581.184 C1039.214,590.388 1046.676,597.85 1055.881,597.85 L1055.881,597.85 Z M1055.881,581.184 L1039.214,581.184 C1039.214,590.388 1046.676,597.85 1055.881,597.85 L1055.881,581.184 L1055.881,581.184 Z" id="dashboard" sketch:type="MSShapeGroup"></path>
        </g>
    </g>
</svg>