<svg xmlns="http://www.w3.org/2000/svg" viewBox="0 0 512 512" width="512" height="512"><path d="M398.472 113.527C360.416 75.472 309.82 54.513 256 54.513s-104.417 20.958-142.473 59.015C75.471 151.583 54.513 202.18 54.513 256s20.958 104.417 59.014 142.473c38.055 38.055 88.654 59.014 142.473 59.014 53.819 0 104.417-20.958 142.473-59.014 38.055-38.055 59.014-88.654 59.014-142.473s-20.96-104.417-59.015-142.473zm-14.423 270.522c-34.203 34.203-79.678 53.04-128.049 53.04s-93.846-18.837-128.049-53.04S74.911 304.371 74.911 256s18.837-93.846 53.04-128.049S207.629 74.911 256 74.911s93.846 18.837 128.049 53.04 53.04 79.678 53.04 128.049-18.837 93.846-53.04 128.049z" fill="#FFF"/><path d="M334.362 323.72c18.096-23.507 19.762-50.965-5.409-76.135-28.499-28.499-55.333-19.138-78.84-8.112l-51.59-51.59c16.434-14.768 29.538-14.145 33.283-17.89 3.744-3.744 1.04-11.024-1.664-13.728-6.864-6.864-28.707 4.576-44.307 18.93l-6.032-6.032c-2.081-2.081-6.449-1.457-8.737.83-2.705 2.705-2.912 6.657-.831 8.738l6.448 6.448c-16.85 19.346-28.291 47.428-2.081 73.638 26.626 26.626 52.421 13.314 77.175 1.456l60.533 60.533c-26.418 25.172-47.427 13.314-52.42 18.307-3.12 3.12-1.873 10.607 1.456 13.936 7.489 7.489 37.652 6.865 64.069-19.138l7.489 7.489c2.08 2.08 6.032 1.873 8.737-.832 2.288-2.288 2.911-6.656.831-8.736l-8.11-8.112zm-147.903-79.257c-15.394-15.394-8.946-33.075 3.121-47.22l48.26 48.26c-18.306 8.738-35.154 15.187-51.381-1.04zm134.38 66.982l-56.79-56.79c17.682-7.279 34.74-10.607 52.837 7.49 15.394 15.394 16.226 32.451 3.953 49.3zM256 0c-4.125 0-8.29.099-12.381.295-5.627.269-9.969 5.048-9.701 10.674.261 5.46 4.77 9.712 10.18 9.712.163 0 .328-.004.495-.012a241.46 241.46 0 0 1 11.407-.27c5.632 0 10.199-4.567 10.199-10.199C266.199 4.567 261.632 0 256 0z" fill="#FFF"/><path d="M491.196 154.752a254.639 254.639 0 0 0-44.851-69.929h3.918c5.632 0 10.199-4.567 10.199-10.199s-4.567-10.199-10.199-10.199H421.52c-5.632 0-10.199 4.567-10.199 10.199v28.743c0 5.632 4.567 10.199 10.199 10.199s10.199-4.567 10.199-10.199v-4.311c38.727 43.211 59.884 98.333 59.884 156.944 0 129.911-105.69 235.602-235.602 235.602S20.398 385.911 20.398 256c0-106.18 71.488-199.702 173.844-227.427 5.437-1.473 8.65-7.075 7.178-12.511-1.473-5.437-7.076-8.654-12.511-7.178C77.682 39.012 0 140.63 0 256c0 68.381 26.628 132.667 74.982 181.019C123.333 485.372 187.619 512 256 512s132.667-26.628 181.019-74.981C485.372 388.667 512 324.381 512 256c0-35.157-7-69.222-20.804-101.248z" fill="#FFF"/></svg>