<?xml version="1.0" encoding="UTF-8" standalone="no"?>
<svg width="108px" height="131px" viewBox="0 0 108 131" version="1.1" xmlns="http://www.w3.org/2000/svg" xmlns:xlink="http://www.w3.org/1999/xlink" xmlns:sketch="http://www.bohemiancoding.com/sketch/ns">
    <!-- Generator: Sketch 3.3.2 (12043) - http://www.bohemiancoding.com/sketch -->
    <title>perpetual-gears</title>
    <desc>Created with Sketch.</desc>
    <defs></defs>
    <g id="Page-1" stroke="none" stroke-width="1" fill="none" fill-rule="evenodd" sketch:type="MSPage">
        <g id="Home" sketch:type="MSArtboardGroup" transform="translate(-449.000000, -489.000000)" stroke="#B5A0C7" stroke-width="2" stroke-linecap="round" stroke-linejoin="round">
            <g id="perpetual-gears" sketch:type="MSLayerGroup" transform="translate(450.000000, 490.000000)">
                <path d="M102.615,71.677 L100.427,70.772 C100.672,69.126 100.663,67.475 100.42,65.871 L102.61,64.962 C104.658,64.112 105.629,61.764 104.779,59.716 C103.929,57.669 101.58,56.698 99.533,57.548 L97.343,58.457 C96.379,57.151 95.216,55.979 93.878,54.99 L94.782,52.803 C95.629,50.754 94.655,48.407 92.606,47.56 C90.558,46.713 88.211,47.687 87.364,49.736 L86.459,51.923 C84.813,51.678 83.163,51.687 81.558,51.93 L80.649,49.74 C79.8,47.693 77.451,46.722 75.404,47.571 C73.356,48.421 72.385,50.77 73.235,52.817 L74.144,55.007 C72.838,55.971 71.667,57.134 70.677,58.473 L68.49,57.568 C66.442,56.721 64.094,57.696 63.247,59.744 C62.4,61.792 63.375,64.14 65.423,64.987 L67.61,65.891 C67.366,67.537 67.374,69.188 67.618,70.792 L65.428,71.701 C63.38,72.551 62.409,74.9 63.259,76.947 C63.684,77.97 64.483,78.725 65.433,79.118 C66.382,79.51 67.481,79.54 68.504,79.115 L70.694,78.206 C71.659,79.512 72.821,80.684 74.16,81.673 L73.256,83.86 C72.409,85.909 73.383,88.256 75.431,89.103 C77.48,89.95 79.827,88.976 80.674,86.927 L81.578,84.74 C83.224,84.985 84.875,84.976 86.48,84.733 L87.388,86.923 C87.813,87.947 88.613,88.701 89.562,89.094 C90.511,89.486 91.61,89.516 92.634,89.092 C94.681,88.242 95.653,85.893 94.803,83.846 L93.894,81.656 C95.199,80.692 96.371,79.529 97.36,78.191 L99.547,79.095 C101.596,79.942 103.943,78.968 104.79,76.919 C105.637,74.871 104.663,72.523 102.615,71.677 L102.615,71.677 Z M92.673,71.91 C90.697,76.69 85.22,78.963 80.441,76.986 C75.661,75.01 73.388,69.533 75.364,64.754 C77.34,59.974 82.817,57.701 87.597,59.677 C92.377,61.653 94.65,67.13 92.673,71.91 L92.673,71.91 Z M39.756,71.137 L37.569,70.232 C37.814,68.586 37.805,66.935 37.561,65.331 L39.752,64.422 C41.799,63.572 42.77,61.223 41.92,59.176 C41.071,57.129 38.722,56.158 36.675,57.008 L34.484,57.917 C33.52,56.611 32.358,55.439 31.019,54.45 L31.924,52.263 C32.771,50.214 31.796,47.867 29.748,47.02 C27.699,46.173 25.352,47.147 24.505,49.196 L23.601,51.383 C21.955,51.138 20.304,51.147 18.699,51.391 L17.791,49.2 C16.941,47.153 14.593,46.182 12.545,47.031 C10.498,47.881 9.527,50.23 10.376,52.277 L11.285,54.467 C9.98,55.431 8.808,56.594 7.819,57.933 L5.632,57.028 C3.583,56.181 1.236,57.156 0.389,59.204 C-0.458,61.253 0.516,63.6 2.565,64.447 L4.752,65.351 C4.507,66.997 4.516,68.648 4.759,70.252 L2.569,71.161 C0.522,72.011 -0.449,74.359 0.4,76.407 C0.825,77.43 1.625,78.185 2.574,78.577 C3.523,78.97 4.622,79 5.646,78.575 L7.836,77.667 C8.8,78.972 9.963,80.144 11.301,81.133 L10.397,83.32 C9.55,85.369 10.524,87.716 12.573,88.563 C14.621,89.41 16.968,88.436 17.815,86.387 L18.72,84.2 C20.366,84.445 22.017,84.436 23.621,84.193 L24.53,86.383 C24.955,87.407 25.754,88.161 26.704,88.554 C27.653,88.946 28.752,88.976 29.776,88.551 C31.823,87.702 32.794,85.353 31.944,83.306 L31.035,81.116 C32.341,80.152 33.513,78.989 34.502,77.651 L36.689,78.555 C38.738,79.402 41.085,78.428 41.932,76.379 C42.779,74.331 41.805,71.983 39.756,71.137 L39.756,71.137 Z M29.815,71.37 C27.839,76.15 22.362,78.423 17.582,76.446 C12.802,74.47 10.529,68.993 12.506,64.213 C14.482,59.434 19.959,57.161 24.738,59.137 C29.518,61.113 31.791,66.59 29.815,71.37 L29.815,71.37 Z M71.847,111.006 L69.66,110.102 C69.904,108.455 69.895,106.804 69.652,105.2 L71.842,104.291 C73.89,103.441 74.861,101.093 74.011,99.045 C73.161,96.998 70.813,96.027 68.765,96.877 L66.575,97.786 C65.611,96.48 64.448,95.309 63.11,94.319 L64.014,92.132 C64.861,90.084 63.887,87.736 61.838,86.889 C59.79,86.042 57.443,87.017 56.596,89.065 L55.692,91.252 C54.045,91.008 52.395,91.016 50.79,91.26 L49.881,89.069 C49.032,87.022 46.683,86.051 44.636,86.901 C42.588,87.75 41.617,90.099 42.467,92.146 L43.376,94.337 C42.071,95.301 40.899,96.463 39.909,97.802 L37.722,96.898 C35.674,96.051 33.326,97.025 32.479,99.073 C31.633,101.122 32.607,103.469 34.655,104.316 L36.842,105.22 C36.598,106.866 36.606,108.517 36.85,110.122 L34.66,111.03 C32.612,111.88 31.641,114.229 32.491,116.276 C32.916,117.3 33.715,118.054 34.665,118.447 C35.614,118.839 36.713,118.87 37.736,118.445 L39.927,117.536 C40.891,118.841 42.053,120.013 43.392,121.002 L42.488,123.19 C41.641,125.238 42.615,127.585 44.663,128.432 C46.712,129.279 49.059,128.305 49.906,126.257 L50.81,124.069 C52.456,124.314 54.107,124.305 55.712,124.062 L56.621,126.252 C57.045,127.276 57.845,128.03 58.794,128.423 C59.743,128.815 60.842,128.845 61.866,128.421 C63.913,127.571 64.885,125.222 64.035,123.175 L63.126,120.985 C64.431,120.021 65.603,118.858 66.592,117.52 L68.78,118.424 C70.828,119.271 73.175,118.297 74.022,116.249 C74.869,114.2 73.895,111.853 71.847,111.006 L71.847,111.006 Z M61.906,111.239 C59.929,116.019 54.453,118.292 49.673,116.316 C44.893,114.339 42.62,108.863 44.596,104.083 C46.572,99.303 52.049,97.03 56.829,99.006 C61.609,100.982 63.882,106.459 61.906,111.239 L61.906,111.239 Z" id="Stroke-1" sketch:type="MSShapeGroup"></path>
                <path d="M13.876,24.208 L21.16,16.923 L28.445,24.208 M21.16,16.923 L21.16,39.635 M76.734,24.884 L84.019,17.6 L91.303,24.884 M84.019,17.6 L84.019,38.959 M21.16,95.926 L21.16,108.833 M21.16,116.185 L21.16,120.257 M84.012,97.191 L84.012,110.098 M84.012,117.451 L84.012,121.522 M45.966,8.022 L53.251,0.738 L60.535,8.022 M53.251,0.738 L53.251,42.525 M53.251,49.121 L53.251,56.142 M53.251,62.564 L53.251,69.584" id="Stroke-2" sketch:type="MSShapeGroup"></path>
            </g>
        </g>
    </g>
</svg>