<?xml version="1.0" encoding="iso-8859-1"?>
<!-- Generator: Adobe Illustrator 19.0.0, SVG Export Plug-In . SVG Version: 6.00 Build 0)  -->
<svg xmlns="http://www.w3.org/2000/svg" xmlns:xlink="http://www.w3.org/1999/xlink" version="1.1" id="Layer_1" x="0px" y="0px" viewBox="0 0 496 496" style="enable-background:new 0 0 496 496;" xml:space="preserve" width="512px" height="512px">
<g>
	<g>
		<g>
			<rect x="296" y="360" width="16" height="48" fill="#334586"/>
			<rect x="58.452" y="371.998" transform="matrix(0.7071 -0.7071 0.7071 0.7071 -230.0397 204.631)" width="147.079" height="16" fill="#334586"/>
			
				<rect x="187.996" y="325.772" transform="matrix(-0.7071 -0.7071 0.7071 -0.7071 60.232 800.9393)" width="16" height="124.447" fill="#334586"/>
			<path d="M64,224c0,13.232,10.768,24,24,24s24-10.768,24-24s-10.768-24-24-24S64,210.768,64,224z M96,224c0,4.416-3.584,8-8,8     s-8-3.584-8-8s3.584-8,8-8S96,219.584,96,224z" fill="#334586"/>
			<path d="M128,224h16c0-30.872-25.128-56-56-56s-56,25.128-56,56h16c0-22.056,17.944-40,40-40C110.056,184,128,201.944,128,224z" fill="#334586"/>
			<path d="M480,320v-56h-0.208c5.08-6.704,8.208-14.96,8.208-24c0-22.056-17.944-40-40-40h-48v-16h16v-16h-32v-16h16v-16h8     c17.648,0,32-14.352,32-32c0-8.048-3.08-15.32-8-20.944V16h16V0h-48v16h16v57.136c-2.576-0.672-5.224-1.136-8-1.136h-8V56H256v16     h-8c-2.776,0-5.432,0.464-8,1.136V16h16V0h-48v16h16v67.056c-4.92,5.624-8,12.896-8,20.944c0,17.648,14.352,32,32,32h8v16h16v16     h-32v16h16v16h-48c-13.336,0-25.096,6.632-32.368,16.696C171.896,171.584,134.056,136,88,136c-48.52,0-88,39.48-88,88h16     c0-39.704,32.296-72,72-72s72,32.296,72,72h11.392c-2.16,4.912-3.392,10.304-3.392,16c0,9.04,3.128,17.296,8.208,24H24     c-13.232,0-24,10.768-24,24v184c0,13.232,10.768,24,24,24h288c13.232,0,24-10.768,24-24v-8h80v32h80V320H480z M400,88h8     c8.816,0,16,7.184,16,16s-7.184,16-16,16h-8V88z M256,120h-8c-8.824,0-16-7.184-16-16s7.176-16,16-16h8V120z M272,72h112v64H272     V72z M368,152v16h-80v-16H368z M239.792,216H256v48h-16.208c5.08-6.704,8.208-14.96,8.208-24S244.872,222.704,239.792,216z      M208,216c13.232,0,24,10.768,24,24s-10.768,24-24,24s-24-10.768-24-24S194.768,216,208,216z M32,480h-8c-4.416,0-8-3.584-8-8     V288c0-4.416,3.584-8,8-8h8V480z M272,480H48V280h208h16V480z M320,472c0,4.416-3.584,8-8,8h-24V280h24c4.416,0,8,3.584,8,8V472z      M312,264h-40v-80h112v168h-48v-64C336,274.768,325.232,264,312,264z M416,448h-80v-80h80V448z M416,320v8v24h-16v-80h16V320z      M408,240c0,5.696,1.232,11.088,3.392,16H400v-40h16.208C411.128,222.704,408,230.96,408,240z M424,240c0-13.232,10.768-24,24-24     s24,10.768,24,24s-10.768,24-24,24S424,253.232,424,240z M464,276.608V320h-32v-43.392c4.912,2.16,10.304,3.392,16,3.392     C453.696,280,459.088,278.768,464,276.608z M480,352h-16v16h16v16h-16v16h16v16h-16v16h16v16h-16v16h16v16h-48v-16h16v-16h-16     v-16h16v-16h-16v-16h16v-16h-16v-16h16v-16h-16v-16h48V352z" fill="#334586"/>
			<rect x="288" y="88" width="16" height="16" fill="#334586"/>
			<rect x="352" y="88" width="16" height="16" fill="#334586"/>
		</g>
	</g>
</g>
<g>
</g>
<g>
</g>
<g>
</g>
<g>
</g>
<g>
</g>
<g>
</g>
<g>
</g>
<g>
</g>
<g>
</g>
<g>
</g>
<g>
</g>
<g>
</g>
<g>
</g>
<g>
</g>
<g>
</g>
</svg>
