<?xml version="1.0" encoding="utf-8"?>
<!-- Generator: Adobe Illustrator 21.0.2, SVG Export Plug-In . SVG Version: 6.00 Build 0)  -->
<svg version="1.1" id="Layer_1" xmlns="http://www.w3.org/2000/svg" xmlns:xlink="http://www.w3.org/1999/xlink" x="0px" y="0px"
	 viewBox="0 0 489.4 489.4" style="enable-background:new 0 0 489.4 489.4;" xml:space="preserve">
<style type="text/css">
	.st0{fill:#334586;}
</style>
<g>
	<g>
		<path class="st0" d="M428.9,257.2c4.8,1.5,9.9-1.1,11.4-5.9c6-18.8,9-38.4,9-58.4C449.3,86.5,362.8,0,256.4,0
			c-28.8,0-56.6,6.2-82.4,18.5c-67.9,31.4-111.7,100-111.7,174.7v28.3L25.9,291c-6,11.5-6.4,23.2-1,32.1s15.9,14,28.9,14h8.5V396
			c0,26.3,21.4,47.7,47.7,47.7c0.4,0,0.9,0,1.3-0.1l42.7-6.3l0.1,43c0,5,4.1,9.1,9.1,9.1l0,0c5,0,9.1-4.1,9.1-9.1l-0.1-53.5
			c0-2.6-1.2-5.1-3.1-6.9c-2-1.7-4.6-2.5-7.2-2.1l-52.3,7.8c-16-0.3-29-13.5-29-29.6v-68c0-5-4.1-9.1-9.1-9.1H53.8
			c-6.5,0-11.3-1.9-13.4-5.3c-2-3.4-1.5-8.6,1.5-14.3l37.5-71.5c0.7-1.3,1-2.7,1-4.2v-30.5c0-67.7,39.7-129.8,101.1-158.3
			c23.5-11.1,48.6-16.7,74.7-16.7c96.4,0,174.8,78.4,174.8,174.8c0,18-2.7,35.8-8.1,52.9C421.4,250.6,424.1,255.7,428.9,257.2z"/>
		<path class="st0" d="M468.3,480.3V372.7c0-5-4.1-9.1-9.1-9.1h-21.6v-32.4c0-34.1-27.8-61.9-61.9-61.9s-61.9,27.8-61.9,61.9v32.4
			h-21.6c-5,0-9.1,4.1-9.1,9.1v107.6c0,5,4.1,9.1,9.1,9.1h166.9C464.2,489.4,468.3,485.3,468.3,480.3z M332,331.2
			c0-24.1,19.6-43.8,43.8-43.8s43.8,19.6,43.8,43.8v32.4h-87.5L332,331.2L332,331.2z M450.1,471.3H301.4v-89.6h148.7V471.3
			L450.1,471.3z"/>
	</g>
</g>
</svg>
