<?xml version="1.0" encoding="UTF-8" standalone="no"?>
<svg width="50px" height="50px" viewBox="0 0 50 50" version="1.1" xmlns="http://www.w3.org/2000/svg" xmlns:xlink="http://www.w3.org/1999/xlink" xmlns:sketch="http://www.bohemiancoding.com/sketch/ns">
    <!-- Generator: Sketch 3.3.2 (12043) - http://www.bohemiancoding.com/sketch -->
    <title>solution-optimizer</title>
    <desc>Created with Sketch.</desc>
    <defs>
        <path id="path-1" d="M0.333,0.667 L30,0.667 L30,30 L0.333,30 L0.333,0.667 Z"></path>
        <path id="path-3" d="M0,0 L25.167,0 L25.167,27.333 L0,27.333 L0,0 Z"></path>
    </defs>
    <g id="Page-1" stroke="none" stroke-width="1" fill="none" fill-rule="evenodd" sketch:type="MSPage">
        <g id="Home" sketch:type="MSArtboardGroup" transform="translate(-129.000000, -1049.000000)">
            <g id="solution-optimizer" sketch:type="MSLayerGroup" transform="translate(129.000000, 1049.000000)">
                <path d="M0,0 L50,0 L50,50 L0,50 L0,0 Z M2,48 L48,48 L48,2 L2,2 L2,48 Z" id="Fill-1" fill="#899CAB" sketch:type="MSShapeGroup"></path>
                <path d="M2,7 L50,7 L50,9 L2,9 L2,7 Z" id="Fill-2" fill="#899CAB" sketch:type="MSShapeGroup"></path>
                <path d="M4,3.292 L6,3.292 L6,5.292 L4,5.292 L4,3.292 Z" id="Fill-3" fill="#899CAB" sketch:type="MSShapeGroup"></path>
                <path d="M8,3.292 L10,3.292 L10,5.292 L8,5.292 L8,3.292 Z" id="Fill-4" fill="#899CAB" sketch:type="MSShapeGroup"></path>
                <path d="M12,3.292 L14,3.292 L14,5.292 L12,5.292 L12,3.292 Z" id="Fill-5" fill="#899CAB" sketch:type="MSShapeGroup"></path>
                <g id="Group-8" transform="translate(20.000000, 19.000000)">
                    <mask id="mask-2" sketch:name="Clip 7" fill="white">
                        <use xlink:href="#path-1"></use>
                    </mask>
                    <g id="Clip-7"></g>
                    <path d="M29,45.385 C26.757,45.385 25,43.602 25,41.327 L25,40.038 C24.817,39.959 24.589,39.867 24.4,39.791 C24.102,39.671 23.783,39.543 23.471,39.404 L23.045,40.066 C22.285,40.826 21.266,41.245 20.176,41.245 C19.119,41.245 18.073,40.805 17.306,40.035 C16.54,39.271 16.118,38.244 16.118,37.148 C16.118,36.051 16.54,35.024 17.307,34.259 L18.069,33.447 C17.676,32.638 17.357,31.727 17.124,31 L16.057,31 C13.63,31 11.999,29.594 11.999,27.5 C11.999,25.406 13.63,24 16.057,24 L17.112,24 C17.356,23.167 17.668,22.127 18.072,21.261 L17.194,20.139 C16.458,19.38 16.041,18.388 16.019,17.337 C15.995,16.241 16.405,15.215 17.174,14.446 C18.771,12.849 21.182,12.849 22.779,14.446 L22.856,14.533 L23.357,15.166 C23.707,15.007 24.067,14.862 24.403,14.729 C24.591,14.653 24.817,14.563 25,14.483 L25,13.196 C25,10.921 26.757,9.139 29,9.139 C31.243,9.139 33,10.921 33,13.196 L33,14.253 C33.913,14.521 35.065,14.865 35.976,15.294 L37.272,14.423 C38.847,12.931 41.364,12.976 42.936,14.546 C43.703,15.313 44.125,16.35 44.125,17.465 C44.125,18.581 43.703,19.618 42.936,20.384 L42.154,21.291 C42.555,22.144 42.874,23.159 43.127,24 L44.187,24 C46.613,24 48.244,25.406 48.244,27.5 C48.244,29.594 46.613,31 44.187,31 L43.116,31 C42.86,31.783 42.533,32.685 42.145,33.473 L42.944,34.386 C43.667,35.106 44.082,36.129 44.069,37.22 C44.057,38.297 43.628,39.312 42.862,40.076 C42.12,40.82 41.02,41.265 39.92,41.265 C38.811,41.265 37.677,40.825 36.943,40.115 L35.915,39.28 C35.011,39.694 33.882,40.021 33,40.273 L33,41.327 C33,43.602 31.243,45.385 29,45.385 L29,45.385 Z M22.732,36.707 L23.6,37.231 C24.012,37.479 24.614,37.722 25.146,37.936 C26.263,38.384 27,38.681 27,39.523 L27,41.327 C27,42.481 27.879,43.385 29,43.385 C30.121,43.385 31,42.481 31,41.327 L31,38.784 L31.707,38.567 C31.907,38.506 32.146,38.437 32.409,38.362 C33.355,38.091 34.783,37.681 35.521,37.235 L36.123,36.872 L38.318,38.663 C38.678,39.023 39.321,39.265 39.92,39.265 C40.491,39.265 41.077,39.034 41.447,38.663 C41.843,38.268 42.063,37.747 42.069,37.195 C42.076,36.648 41.868,36.136 41.485,35.752 L39.7,33.718 L40.077,33.092 C40.647,32.148 41.121,30.708 41.428,29.707 L41.644,29 L44.187,29 C44.955,29 46.244,28.805 46.244,27.5 C46.244,26.195 44.955,26 44.187,26 L41.644,26 L41.297,24.858 C41.014,23.912 40.585,22.481 40.096,21.669 L39.721,21.048 L41.474,19.022 C41.905,18.587 42.125,18.038 42.125,17.465 C42.125,16.892 41.905,16.343 41.523,15.96 C40.706,15.143 39.401,15.123 38.612,15.91 L38.463,16.033 L36.066,17.642 L35.521,17.312 C34.758,16.852 33.291,16.422 32.32,16.138 L31,15.737 L31,13.196 C31,12.043 30.121,11.139 29,11.139 C27.879,11.139 27,12.043 27,13.196 L27,14.999 C27,15.844 26.263,16.139 25.146,16.585 C24.615,16.798 24.012,17.039 23.6,17.288 L22.845,17.743 L21.327,15.823 C20.525,15.057 19.38,15.07 18.588,15.86 C18.209,16.239 18.007,16.749 18.019,17.295 C18.03,17.848 18.256,18.372 18.654,18.77 L18.735,18.861 L20.47,21.08 L20.114,21.67 C19.653,22.434 19.272,23.741 18.992,24.696 L18.599,26 L16.057,26 C15.288,26 13.999,26.195 13.999,27.5 C13.999,28.805 15.288,29 16.057,29 L18.599,29 L18.815,29.707 C19.072,30.544 19.55,32.102 20.147,33.092 L20.539,33.741 L18.742,35.651 C18.332,36.062 18.118,36.585 18.118,37.148 C18.118,37.71 18.332,38.233 18.721,38.622 C19.502,39.405 20.791,39.403 21.547,38.731 L22.732,36.707 L22.732,36.707 Z M30.121,35.396 C25.636,35.396 21.987,31.747 21.987,27.262 C21.987,22.776 25.636,19.127 30.121,19.127 C34.606,19.127 38.256,22.776 38.256,27.262 C38.256,31.747 34.606,35.396 30.121,35.396 L30.121,35.396 Z M30.121,21.127 C26.739,21.127 23.987,23.879 23.987,27.262 C23.987,30.644 26.739,33.396 30.121,33.396 C33.504,33.396 36.256,30.644 36.256,27.262 C36.256,23.879 33.504,21.127 30.121,21.127 L30.121,21.127 Z" id="Fill-6" fill="#899CAB" sketch:type="MSShapeGroup" mask="url(#mask-2)"></path>
                </g>
                <g id="Group-11" transform="translate(2.000000, 7.000000)">
                    <mask id="mask-4" sketch:name="Clip 10" fill="white">
                        <use xlink:href="#path-3"></use>
                    </mask>
                    <g id="Clip-10"></g>
                    <path d="M1,20.385 C-1.243,20.385 -3,18.602 -3,16.327 L-3,15.038 C-3.183,14.959 -3.411,14.867 -3.6,14.791 C-3.898,14.671 -4.217,14.543 -4.529,14.404 L-4.955,15.066 C-5.715,15.826 -6.734,16.245 -7.824,16.245 C-8.881,16.245 -9.927,15.805 -10.694,15.035 C-11.46,14.27 -11.882,13.244 -11.882,12.148 C-11.882,11.051 -11.46,10.024 -10.693,9.259 L-9.931,8.447 C-10.324,7.638 -10.643,6.727 -10.876,6 L-11.943,6 C-14.37,6 -16.001,4.594 -16.001,2.5 C-16.001,0.406 -14.37,-1 -11.943,-1 L-10.888,-1 C-10.645,-1.833 -10.332,-2.873 -9.928,-3.739 L-10.806,-4.861 C-11.542,-5.62 -11.959,-6.612 -11.981,-7.663 C-12.005,-8.759 -11.595,-9.785 -10.826,-10.554 C-9.228,-12.151 -6.818,-12.151 -5.221,-10.554 L-5.144,-10.467 L-4.643,-9.834 C-4.293,-9.993 -3.933,-10.138 -3.597,-10.272 C-3.409,-10.347 -3.183,-10.438 -3,-10.517 L-3,-11.804 C-3,-14.079 -1.243,-15.861 1,-15.861 C3.243,-15.861 5,-14.079 5,-11.804 L5,-10.747 C5.913,-10.48 7.065,-10.135 7.976,-9.706 L9.273,-10.577 C10.847,-12.068 13.364,-12.024 14.937,-10.454 C15.703,-9.688 16.125,-8.65 16.125,-7.535 C16.125,-6.419 15.703,-5.382 14.937,-4.616 L14.154,-3.709 C14.555,-2.856 14.874,-1.841 15.127,-1 L16.187,-1 C18.613,-1 20.244,0.406 20.244,2.5 C20.244,4.594 18.613,6 16.187,6 L15.116,6 C14.86,6.783 14.533,7.685 14.145,8.473 L14.944,9.386 C15.667,10.106 16.082,11.129 16.069,12.22 C16.057,13.297 15.628,14.312 14.862,15.076 C14.12,15.82 13.02,16.265 11.92,16.265 C10.812,16.265 9.677,15.825 8.943,15.115 L7.915,14.28 C7.011,14.694 5.882,15.02 5,15.273 L5,16.327 C5,18.602 3.243,20.385 1,20.385 L1,20.385 Z M-5.268,11.707 L-4.4,12.231 C-3.988,12.48 -3.386,12.722 -2.853,12.935 C-1.737,13.384 -1,13.681 -1,14.523 L-1,16.327 C-1,17.481 -0.121,18.385 1,18.385 C2.121,18.385 3,17.481 3,16.327 L3,13.784 L3.707,13.567 C3.907,13.506 4.146,13.438 4.409,13.362 C5.354,13.091 6.783,12.681 7.521,12.235 L8.123,11.872 L10.318,13.663 C10.678,14.023 11.321,14.265 11.92,14.265 C12.491,14.265 13.077,14.034 13.447,13.663 C13.843,13.268 14.063,12.747 14.069,12.195 C14.076,11.648 13.868,11.136 13.485,10.752 L11.7,8.718 L12.077,8.092 C12.646,7.148 13.121,5.708 13.428,4.707 L13.645,4 L16.187,4 C16.955,4 18.244,3.805 18.244,2.5 C18.244,1.195 16.955,1 16.187,1 L13.645,1 L13.297,-0.142 C13.014,-1.088 12.585,-2.519 12.096,-3.331 L11.721,-3.952 L13.474,-5.978 C13.905,-6.413 14.125,-6.962 14.125,-7.535 C14.125,-8.108 13.905,-8.657 13.522,-9.04 C12.706,-9.855 11.4,-9.878 10.612,-9.09 L10.463,-8.967 L8.066,-7.358 L7.521,-7.688 C6.758,-8.148 5.291,-8.578 4.32,-8.862 L3,-9.263 L3,-11.804 C3,-12.957 2.121,-13.861 1,-13.861 C-0.121,-13.861 -1,-12.957 -1,-11.804 L-1,-10.001 C-1,-9.156 -1.737,-8.861 -2.853,-8.415 C-3.385,-8.202 -3.988,-7.961 -4.4,-7.712 L-5.155,-7.257 L-6.673,-9.177 C-7.475,-9.943 -8.62,-9.93 -9.412,-9.14 C-9.791,-8.761 -9.993,-8.251 -9.981,-7.705 C-9.97,-7.152 -9.744,-6.628 -9.346,-6.229 L-9.265,-6.139 L-7.53,-3.92 L-7.886,-3.33 C-8.347,-2.566 -8.729,-1.259 -9.008,-0.304 L-9.401,1 L-11.943,1 C-12.712,1 -14.001,1.195 -14.001,2.5 C-14.001,3.805 -12.712,4 -11.943,4 L-9.401,4 L-9.185,4.707 C-8.928,5.544 -8.45,7.102 -7.853,8.092 L-7.461,8.741 L-9.258,10.651 C-9.668,11.062 -9.882,11.585 -9.882,12.148 C-9.882,12.71 -9.668,13.233 -9.279,13.622 C-8.499,14.405 -7.209,14.403 -6.453,13.731 L-5.268,11.707 L-5.268,11.707 Z M2.121,10.396 C-2.364,10.396 -6.013,6.747 -6.013,2.262 C-6.013,-2.224 -2.364,-5.873 2.121,-5.873 C6.606,-5.873 10.256,-2.224 10.256,2.262 C10.256,6.747 6.606,10.396 2.121,10.396 L2.121,10.396 Z M2.121,-3.873 C-1.261,-3.873 -4.013,-1.121 -4.013,2.262 C-4.013,5.644 -1.261,8.397 2.121,8.397 C5.504,8.397 8.256,5.644 8.256,2.262 C8.256,-1.121 5.504,-3.873 2.121,-3.873 L2.121,-3.873 Z" id="Fill-9" fill="#899CAB" sketch:type="MSShapeGroup" mask="url(#mask-4)"></path>
                </g>
                <path d="M26.5,32 L26.5,36 M26.5,19 L26.5,23 M31,27.5 L35,27.5 M18,27.5 L22,27.5" id="Stroke-12" stroke="#899CAB" stroke-width="3" stroke-linecap="round" sketch:type="MSShapeGroup"></path>
            </g>
        </g>
    </g>
</svg>