<svg xmlns="http://www.w3.org/2000/svg" width="555" height="90" viewBox="0 0 555 90" style="background:#fff">
  <g fill="none" fill-rule="evenodd" transform="translate(-41 -1490)">
    <g transform="translate(426 1489)">
      <rect width="160" height="90"/>
      <polyline fill="#5086B9" points="29.13 56.103 26.346 56.103 20.585 38.419 20.489 38.419 14.728 56.103 11.991 56.103 2.054 29.837 7.382 29.837 13.287 46.905 13.383 46.905 18.904 29.837 22.169 29.837 27.69 46.905 27.786 46.905 33.643 29.837 38.972 29.837 29.13 56.103"/>
      <path fill="#5086B9" d="M44.3116495,45.1033824 C45.5599175,50.1762059 49.6885567,52.2623529 53.0492577,52.2623529 C56.7455464,52.2623529 59.434,50.1285588 60.6345567,47.8531471 L65.6270928,47.8531471 C63.0828454,54.6327941 56.9857113,56.7665882 52.8570722,56.7665882 C45.3200206,56.7665882 39.3188454,50.3654706 39.3188454,42.9227353 C39.3188454,35.0522353 45.4639588,29.1257353 52.9530309,29.1257353 C60.1542268,29.1257353 66.4430103,34.9100882 66.4912577,42.5905294 C66.4912577,43.4436765 66.395299,44.7714412 66.3473196,45.1033824 L44.3116495,45.1033824 L44.3116495,45.1033824 Z M61.4987216,41.3101471 C61.2582887,37.4700588 57.7059381,33.6297059 52.9050515,33.6297059 C48.104433,33.6297059 44.5518144,37.4700588 44.3116495,41.3101471 L61.4987216,41.3101471 L61.4987216,41.3101471 Z"/>
      <path fill="#51B046" d="M70.2843093 29.837L74.8450309 29.837 74.8450309 33.8671471 74.9409897 33.8671471C77.341299 30.4535 80.9898763 29.1257353 84.3990928 29.1257353 93.4240412 29.1257353 98.1769485 36.2849706 98.1769485 43.3015294 98.1769485 49.9392941 93.1361649 56.7665882 84.7346804 56.7665882 79.1658557 56.7665882 76.3811753 53.9689118 75.3733402 52.3097353L75.2773814 52.3097353 75.2773814 64.8734706 70.2843093 64.8734706 70.2843093 29.837 70.2843093 29.837zM84.062433 33.6297059C78.8294639 33.6297059 75.1814227 38.0865588 75.1814227 42.9227353 75.1814227 48.2324706 79.1658557 52.2623529 84.2063711 52.2623529 88.911299 52.2623529 93.1841443 48.5641471 93.1841443 43.0175 93.1841443 38.324 89.4873196 33.6297059 84.062433 33.6297059L84.062433 33.6297059zM123.860928 56.1027059L123.860928 52.0254412 123.764433 52.0254412C121.844722 55.2490294 118.339814 56.7665882 114.739753 56.7665882 105.761711 56.7665882 100.624969 49.9864118 100.624969 43.0646176 100.624969 36.6640294 105.185959 29.1257353 114.739753 29.1257353 118.436041 29.1257353 121.844722 30.6430294 123.764433 33.5349412L123.860928 33.5349412 123.860928 29.837 128.853732 29.837 128.853732 56.1027059 123.860928 56.1027059 123.860928 56.1027059zM114.739753 33.6297059C108.594639 33.6297059 105.617773 38.8923235 105.617773 43.0175 105.617773 47.7581176 109.410825 52.2623529 114.691505 52.2623529 119.924474 52.2623529 123.957155 48.0426765 123.957155 43.0175 123.957155 37.4226765 119.875959 33.6297059 114.739753 33.6297059L114.739753 33.6297059z"/>
      <polyline fill="#51B046" points="143.256 64.873 138.071 64.873 141.96 55.581 131.35 29.837 136.727 29.837 144.552 50.224 152.569 29.837 157.947 29.837 143.256 64.873"/>
    </g>
    <g transform="translate(231 1489)">
      <rect width="160" height="90"/>
      <path fill="#74B346" d="M68.8652779,65.9372282 C68.0464245,65.0662697 66.9625733,64.635473 65.8914136,64.206195 C63.2246827,63.1373029 60.4084464,62.6928382 57.5866258,62.2628008 C54.6452516,61.8142863 51.8153085,61.0220456 49.2973217,59.3553029 C46.1820744,57.2931992 44.4966477,54.2933154 43.6206827,50.7629087 C43.4985908,50.2703527 43.4034048,49.7709627 43.3039037,49.2730913 C42.9604726,47.5557261 41.5842101,46.2132199 39.8340569,45.8932863 C39.4954486,46.2005643 39.3736105,45.9142946 39.2906083,45.6685228 C39.1083589,45.1286349 39.0842451,44.5740664 39.2332429,44.0182324 C39.2697943,43.9466017 39.3279212,43.9182531 39.407116,43.9326805 C40.6546871,45.0165062 41.9334792,46.0540124 43.3846214,46.8677676 C44.5692429,47.5321867 45.8982932,47.5134564 47.1763239,47.7189834 C51.8239387,48.4656639 56.2134092,49.8777759 60.0820219,52.6379627 C64.6143982,55.871722 67.4346958,60.2852365 68.9614792,65.5747718 C68.994477,65.6886722 68.9802626,65.8159876 68.9878775,65.9372282 L68.8652779,65.9372282"/>
      <path fill="#4B9023" d="M39.3078687,43.9334398 C39.350512,44.4973734 39.2637024,45.0673817 39.4312298,45.6275187 C39.5020481,45.8641784 39.5601751,46.0119959 39.8340569,45.8932863 C40.2000788,47.9533651 40.6417418,49.9987635 40.9572516,52.0689668 C41.3808928,54.8473776 41.6532516,57.6399627 41.8761138,60.4393817 C41.902512,60.7704523 41.8695142,60.9400373 41.4448578,60.9364938 C38.7692429,60.9139668 36.0933742,60.9177635 33.4177593,60.9329502 C33.0235624,60.9352282 32.9517287,60.8086722 32.9738118,60.4383693 C34.0008053,43.3206556 30.6154836,27.115917 22.8366302,11.822888 C21.7108972,9.61018257 20.4506346,7.47239834 19.1959562,5.33157676 C19.1581357,5.20274274 19.2180394,5.16553527 19.33607,5.18224066 C23.8428096,10.3644564 27.6817243,16.004805 30.9279475,22.0473485 C34.4927265,28.6826805 37.2185996,35.6462988 39.0829759,42.9430124 C39.3048228,43.2399129 39.4363063,43.5573154 39.3078687,43.9334398"/>
      <path fill="#74B346" d="M94.1984595 56.6191618C94.7342932 55.1250415 95.2340832 53.7329253 95.7331116 52.340556 98.4919825 44.6444315 101.255676 36.950332 103.998048 29.2483859 104.169637 28.7669668 104.390214 28.5994066 104.900665 28.6209212 105.920298 28.6639502 106.943737 28.6578755 107.964131 28.6234523 108.485243 28.6059876 108.631195 28.6778714 108.422039 29.2362365 106.744989 33.7120166 105.097129 38.1986805 103.441654 42.6825602 101.194503 48.768639 98.9371991 54.8511743 96.7189847 60.9476307 96.4897768 61.5773734 96.1930503 61.7839129 95.5427396 61.7477178 94.5449365 61.6920332 93.5412954 61.7165851 92.5407002 61.74139 92.1553873 61.7507552 91.9698381 61.6333112 91.8315011 61.2584523 89.0099344 53.6068755 86.172884 45.9606141 83.339895 38.3130871 82.2235536 35.2997884 81.1100044 32.2854772 79.9959475 29.2714191 79.9266521 29.08361 79.8637024 28.8935228 79.7741007 28.636361 81.2110284 28.636361 82.5933829 28.634083 83.9757374 28.6381328 84.3610503 28.6393983 84.3300832 28.9985643 84.4085164 29.2172531 85.9337768 33.4662448 87.4438074 37.7205519 88.9591685 41.9730871 90.6316499 46.6660373 92.3061619 51.3584813 93.9801663 56.0506722 94.0344858 56.2027925 94.0956586 56.3523817 94.1984595 56.6191618M39.3078687 43.9334398C39.2329891 43.6031286 39.1578556 43.2730705 39.0829759 42.9430124 40.5663545 42.5339834 41.5083151 41.5744357 41.9014967 40.1048672 42.516779 37.8055975 43.3531466 35.6156722 44.888814 33.748971 46.7785733 31.4519793 49.2290416 30.2332448 52.1803151 29.9950664 55.3308446 29.7406888 58.3460832 29.0577925 61.0348972 27.2996763 61.7164289 26.8541992 62.3195274 26.313805 62.97593 25.6714066 62.9931904 26.5666639 62.763221 27.3135975 62.5385821 28.0539502 61.527326 31.388195 59.4345033 33.9719627 56.8053392 36.1684689 55.2036761 37.5066722 53.4362626 38.5953071 51.594477 39.5783942 49.2605164 40.8242116 46.8085252 41.2691826 44.1989059 40.820668 43.453663 40.6925934 42.9241751 40.8819212 42.5325164 41.5972158 42.0134354 42.5451203 41.0770591 43.0505851 40.1452516 43.5327635 39.8970066 43.6610913 39.5985033 43.6998174 39.407116 43.9326805 39.3741182 43.9329336 39.3408665 43.9331867 39.3078687 43.9334398M75.50393 45.1547054C75.50393 50.472083 75.4968228 55.7894606 75.5153523 61.1065851 75.5171291 61.6181245 75.3739694 61.7656888 74.8660569 61.7446805 73.8870372 61.7046888 72.9047177 61.7155726 71.9246827 61.7411369 71.5162713 61.7520207 71.4078862 61.6140747 71.4124551 61.2174481 71.4327615 59.5269129 71.4210853 57.8356183 71.4210853 56.1448299 71.4210853 47.2011162 71.4271772 38.2574025 71.4071247 29.3136888 71.4058556 28.738112 71.5741444 28.5961162 72.1203851 28.6216805 73.0377243 28.6649627 73.9598862 28.6647095 74.8772254 28.6214274 75.3947834 28.5971286 75.5173829 28.7596266 75.5156061 29.2638257 75.4968228 34.5607012 75.50393 39.8578299 75.50393 45.1547054M134.90126 37.5137593C133.759282 30.7007427 127.727536 26.8886224 121.203107 27.9749793 115.616578 28.9054191 111.730197 33.2311037 111.605567 38.9268838 111.442608 46.3800207 111.554039 53.8389793 111.535256 61.2954066 111.534241 61.6624191 111.689077 61.7408838 112.011947 61.7370871 113.033357 61.725444 114.056796 61.707473 115.07719 61.7439212 115.572665 61.761639 115.689173 61.5928133 115.686888 61.12 115.668613 57.4324108 115.68765 53.7445685 115.664805 50.0569793 115.661505 49.5472116 115.79705 49.4196432 116.304963 49.4219212 120.963239 49.4421701 125.621768 49.4431826 130.280044 49.4211618 130.812832 49.4186307 130.962337 49.5424025 130.95853 50.088112 130.932131 53.7757012 130.95193 57.4635436 130.935431 61.1511328 130.9334 61.6004066 131.01691 61.747971 131.483956 61.7449336 132.666547 61.7373402 133.984683 61.6740622 135 61.7808755L135 37.8205311C135 37.7666183 134.920044 37.625888 134.90126 37.5137593L134.90126 37.5137593zM130.297304 45.5143776C127.970197 45.4895726 125.642582 45.5034938 123.315221 45.5034938 120.9673 45.5034938 118.619379 45.4888133 116.271965 45.51539 115.777759 45.5209585 115.659729 45.3703568 115.66709 44.8990622 115.697295 42.9655394 115.638661 41.0297386 115.703895 39.0979876 115.842232 34.991751 119.229838 31.535 123.728455 31.6929419 127.691746 31.8321535 130.935939 35.1929751 130.944061 39.3235104 130.947869 41.1762905 130.925024 43.0290705 130.95726 44.8810913 130.966144 45.406805 130.792525 45.5196929 130.297304 45.5143776L130.297304 45.5143776z"/>
    </g>
    <g transform="translate(57 1489)">
      <rect width="160" height="90"/>
      <path fill="#4B4B4B" d="M92.9132075 35.6056604C88.0981132 35.6056604 84.1584906 39.545283 84.1584906 44.4698113 84.1584906 49.3943396 88.0981132 53.3339623 92.9132075 53.3339623 97.7283019 53.3339623 101.667925 49.3943396 101.667925 44.4698113 101.667925 39.545283 97.7283019 35.6056604 92.9132075 35.6056604L92.9132075 35.6056604zM92.9132075 49.7226415C90.0679245 49.7226415 87.7698113 47.4245283 87.7698113 44.5792453 87.7698113 41.7339623 90.0679245 39.4358491 92.9132075 39.4358491 95.7584906 39.4358491 98.0566038 41.7339623 98.0566038 44.5792453 98.0566038 47.3150943 95.6490566 49.7226415 92.9132075 49.7226415L92.9132075 49.7226415zM112.392453 39.8735849C109.875472 39.8735849 107.90566 41.9528302 107.90566 44.4698113L107.90566 52.8962264 104.075472 52.8962264 104.075472 36.1528302 107.90566 36.1528302 107.90566 38.7792453C107.90566 38.7792453 109.54717 36.1528302 112.830189 36.1528302L113.924528 36.1528302 113.924528 39.8735849 112.392453 39.8735849 112.392453 39.8735849zM74.2 36.1528302L77.045283 47.6433962 80.109434 36.1528302 83.9396226 36.1528302 79.1245283 52.8962264 75.4037736 52.8962264 72.4490566 41.1867925 69.4943396 52.8962264 65.7735849 52.8962264 60.8490566 36.1528302 64.5698113 36.1528302 67.8528302 47.6433962 70.5886792 36.1528302 74.2 36.1528302 74.2 36.1528302zM125.086792 43.8132075C127.713208 42.2811321 129.573585 39.4358491 129.573585 36.1528302L125.743396 36.1528302C125.743396 38.9981132 123.445283 41.2962264 120.709434 41.2962264L120.162264 41.2962264 120.162264 28.054717 116.332075 28.054717 116.332075 52.8962264 120.162264 52.8962264 120.162264 45.0169811 120.6 45.0169811C121.037736 45.0169811 121.475472 45.2358491 121.584906 45.5641509L126.94717 52.8962264 131.433962 52.8962264 125.086792 43.8132075"/>
      <path fill="#6FDA44" d="M51.9849057,35.6056604 C47.8264151,35.6056604 44.6528302,38.3415094 43.4490566,42.7188679 C41.4792453,39.654717 39.9471698,36.1528302 39.0716981,33.1981132 L34.6943396,33.1981132 L34.6943396,44.7981132 C34.6943396,47.0962264 32.8339623,48.9566038 30.5358491,48.9566038 C28.2377358,48.9566038 26.3773585,47.0962264 26.3773585,44.7981132 L26.3773585,33.1981132 L22,33.1981132 L22,44.7981132 C22,49.6132075 25.8301887,53.4433962 30.5358491,53.4433962 C35.2415094,53.4433962 39.0716981,49.6132075 39.0716981,44.7981132 L39.0716981,42.8283019 C39.9471698,44.5792453 41.0415094,46.4396226 42.245283,48.0811321 L39.509434,60.8849057 L43.9962264,60.8849057 L45.9660377,51.5830189 C47.7169811,52.6773585 49.6867925,53.3339623 51.9849057,53.3339623 C56.8,53.3339623 60.7396226,49.3943396 60.7396226,44.3603774 C60.7396226,39.545283 56.8,35.6056604 51.9849057,35.6056604 L51.9849057,35.6056604 Z M51.9849057,48.8471698 C50.2339623,48.8471698 48.4830189,48.0811321 47.0603774,46.8773585 L47.4981132,45.1264151 L47.4981132,45.0169811 C47.8264151,43.1566038 48.8113208,39.9830189 52.0943396,39.9830189 C54.5018868,39.9830189 56.4716981,41.9528302 56.4716981,44.3603774 C56.3622642,46.8773585 54.2830189,48.8471698 51.9849057,48.8471698 L51.9849057,48.8471698 Z"/>
      <path fill="#4B4B4B" d="M131.981132,36.7 L130.777358,36.7 L130.777358,36.2622642 L133.732075,36.2622642 L133.732075,36.7 L132.528302,36.7 L132.528302,40.0924528 L132.090566,40.0924528 L132.090566,36.7 L131.981132,36.7 L131.981132,36.7 Z M134.498113,36.2622642 L134.935849,36.2622642 L136.249057,38.3415094 L137.562264,36.2622642 L138,36.2622642 L138,39.9830189 L137.562264,39.9830189 L137.562264,36.9188679 L136.249057,38.8886792 L134.935849,36.9188679 L134.935849,39.9830189 L134.498113,39.9830189 L134.498113,36.2622642 L134.498113,36.2622642 Z"/>
    </g>
  </g>
</svg>
