<?xml version="1.0" encoding="UTF-8" standalone="no"?>
<svg xmlns:sketch="http://www.bohemiancoding.com/sketch/ns" xmlns="http://www.w3.org/2000/svg" height="26px" width="80px" version="1.1" xmlns:xlink="http://www.w3.org/1999/xlink" viewBox="0 0 80 26"><!-- Generator: Sketch 3.3.2 (12043) - http://www.bohemiancoding.com/sketch -->
 <title>logo-aca</title>
 <desc>Created with Sketch.</desc>
 <g id="Page-1" fill-rule="evenodd" sketch:type="MSPage" fill="none">
  <g id="Home" transform="translate(-1176 -1868)" sketch:type="MSArtboardGroup">
   <g id="Footer" transform="translate(0 1774)" sketch:type="MSLayerGroup">
    <g id="logo-aca" sketch:type="MSShapeGroup" transform="translate(1176 94)">
     <path id="Fill-1" fill="#5080B4" d="m40.806 4.484c-0.298 0-0.53 0.0107-0.53-0.0945 0-0.1478 0.1-0.2638 0.183-0.3905l1.275-1.867c0.083-0.116 0.149-0.1267 0.182-0.1267 0.083 0 0.033 0 0.133 0.085l1.358 1.9087c0.083 0.1267 0.182 0.2427 0.182 0.3905 0 0.1052-0.232 0.0945-0.53 0.0945h-2.253zm2.767 0.5695c0.431 0 0.513 0.1061 1.06 0.9282 0.182 0.2847 0.298 0.475 0.298 0.7069 0 0.643-1.176 0.5274-1.176 0.8332 0 0.1474 0.215 0.1263 0.513 0.1263 0.481 0 1.094-0.0421 1.822-0.0421 1.094 0 1.541 0.0421 2.137 0.0421 0.448 0 0.597 0.0211 0.597-0.158 0-0.3479-0.894 0.0635-1.425-0.6855l-4.473-6.455c-0.214-0.31617-0.247-0.33763-0.397-0.33763-0.215-0.000002-0.298 0.20057-0.414 0.36936l-4.489 6.3808c-0.414 0.5909-1.259 0.5278-1.259 0.7701 0 0.137 0.265 0.1159 0.497 0.1159 0.481 0 0.961-0.0421 1.458-0.0421 0.53 0 1.027 0.0421 1.557 0.0421 0.348 0 0.862 0.0739 0.862-0.1477 0-0.2844-1.79-0.1156-1.79-0.8749 0-0.2534 0.232-0.6228 0.348-0.8333 0.381-0.6962 0.729-0.7387 1.011-0.7387h3.263z"/>
     <path id="Fill-2" fill="#5080B4" d="m60.171 2.4485c0.016 0.1053 0.083 0.3479-0.199 0.3479-0.265 0-0.38-0.2212-0.497-0.3586-0.828-1.0123-2.286-1.9298-4.207-1.9298-2.435 0.00003-3.777 1.4767-3.777 2.8897 0 1.487 1.325 3.5757 4.489 3.5757 2.567 0 3.695-1.3817 4.125-1.3817 0.082 0 0.232 0.0524 0.232 0.1159 0 0.4218-1.756 2.0144-5.284 2.0144-4.854 0-5.6-2.6999-5.6-3.5331 0-1.7721 1.707-4.1031 5.881-4.1031 2.005 0.000041 3.28 0.64385 3.777 0.64385 0.314 0 0.331-0.34832 0.564-0.34832 0.082 0 0.198 0.01073 0.198 0.06356l0.298 2.0036"/>
     <path id="Fill-3" fill="#5080B4" d="m65.654 4.484c-0.299 0-0.531 0.0107-0.531-0.0945 0-0.1478 0.1-0.2638 0.183-0.3905l1.276-1.867c0.082-0.116 0.148-0.1267 0.182-0.1267 0.083 0 0.033 0 0.132 0.085l1.358 1.9087c0.083 0.1267 0.183 0.2427 0.183 0.3905 0 0.1052-0.232 0.0945-0.53 0.0945h-2.253zm2.766 0.5695c0.431 0 0.514 0.1061 1.061 0.9282 0.181 0.2847 0.298 0.475 0.298 0.7069 0 0.643-1.177 0.5274-1.177 0.8332 0 0.1474 0.216 0.1263 0.514 0.1263 0.48 0 1.093-0.0421 1.822-0.0421 1.093 0 1.54 0.0421 2.137 0.0421 0.448 0 0.597 0.0211 0.597-0.158 0-0.3479-0.895 0.0635-1.425-0.6855l-4.473-6.455c-0.215-0.31617-0.249-0.33763-0.397-0.33763-0.216-0.000002-0.298 0.20057-0.414 0.36936l-4.49 6.3808c-0.414 0.5909-1.259 0.5278-1.259 0.7701 0 0.137 0.265 0.1159 0.497 0.1159 0.48 0 0.961-0.0421 1.458-0.0421 0.53 0 1.027 0.0421 1.557 0.0421 0.348 0 0.861 0.0739 0.861-0.1477 0-0.2844-1.788-0.1156-1.788-0.8749 0-0.2534 0.232-0.6228 0.347-0.8333 0.382-0.6962 0.729-0.7387 1.011-0.7387h3.263z"/>
     <path id="Fill-4" fill="#5080B4" d="m72.536 1.5328c0 0.1423 0.048 0.1927 0.212 0.1927h0.098v0.0499h-0.843v-0.0499h0.1c0.163 0 0.211-0.0504 0.211-0.1927v-1.3025l-0.466-0.00001c-0.107 0-0.155 0.06066-0.195 0.2926h-0.048l0.043-0.42714 0.051-0.000004c0.002 0.015684 0.013 0.026414 0.029 0.031774 0.016 0.00496 0.035 0.00785 0.053 0.00785h1.287c0.038 0 0.078-0.00785 0.083-0.039624h0.052l0.042 0.42714h-0.048c-0.04-0.23194-0.088-0.2926-0.195-0.2926h-0.466v1.3025"/>
     <path id="Fill-5" fill="#5080B4" d="m74.468 1.7754l-0.682-1.4052-0.006-0.00001-0.072 1.1865c-0.008 0.1345 0.093 0.1634 0.214 0.1688v0.0499h-0.557v-0.0499c0.196 0 0.22-0.0421 0.233-0.2823l0.065-1.0256c0.011-0.17411 0.005-0.22157-0.161-0.23189v-0.04746h0.404l0.645 1.3288 0.642-1.3288 0.394 0.00005v0.04746c-0.132 0.01032-0.182 0.0128-0.177 0.10235l0.086 1.1947c0.016 0.2427 0.037 0.2427 0.233 0.2427v0.0499h-0.688v-0.0499c0.125 0 0.249-0.0343 0.238-0.1742l-0.077-1.1811-0.006-0.00001-0.666 1.4052h-0.062"/>
     <path id="Fill-6" fill="#5080B4" d="m0.26094 0.62029v18.138l12.512-15.254 1.272 1.7133-13.784 20.395h25.702l-12.087-17.427 1.272-1.7556 10.689 12.538v-18.347"/>
     <path id="Fill-7" fill="#5080B4" d="m33.634 11.199h1.088v0.14h-0.059c-0.185 0-0.26 0.083-0.26 0.271v1.427c0 0.177 0.059 0.263 0.267 0.263h0.052v0.141h-1.088v-0.141h0.048c0.181 0 0.249-0.09 0.249-0.248v-1.442c0-0.188-0.061-0.271-0.253-0.271h-0.044v-0.14"/>
     <path id="Fill-8" fill="#5080B4" d="m36.513 13.009c0 0.22 0.065 0.291 0.339 0.291v0.141h-0.828v-0.141h0.021c0.208 0 0.26-0.079 0.26-0.227v-1.655c-0.075-0.054-0.168-0.079-0.274-0.079v-0.14h0.704l1.396 1.535v-1.088c0-0.26-0.052-0.307-0.325-0.307h-0.034v-0.14h0.882v0.14h-0.035c-0.211 0-0.28 0.047-0.28 0.184v1.929h-0.188l-1.638-1.806v1.363"/>
     <path id="Fill-9" fill="#5080B4" d="m40.914 13.03c0 0.187 0.055 0.27 0.298 0.27h0.081v0.141h-1.231v-0.141h0.117c0.188 0 0.263-0.079 0.263-0.27v-1.644h-0.403c-0.264 0-0.305 0.043-0.37 0.425h-0.14l0.062-0.674h0.109c0.027 0.025 0.045 0.043 0.065 0.05 0.024 0.008 0.052 0.012 0.099 0.012h1.628c0.092 0 0.109-0.008 0.164-0.062h0.109l0.062 0.674h-0.14c-0.065-0.378-0.106-0.425-0.369-0.425h-0.404v1.644"/>
     <path id="Fill-10" fill="#5080B4" d="m44.686 11.397h-0.749v0.811h0.554c0.188 0 0.256-0.068 0.256-0.26h0.137v0.718h-0.137c0-0.195-0.044-0.26-0.308-0.26h-0.502v0.649c0 0.155 0.027 0.188 0.126 0.188h0.572c0.222 0 0.328-0.065 0.392-0.368h0.131l-0.041 0.566h-2.059v-0.141h0.14c0.198 0 0.267-0.083 0.267-0.259v-1.439c0-0.194-0.061-0.263-0.298-0.263h-0.034v-0.14h1.884l0.034 0.522h-0.129c-0.034-0.245-0.079-0.324-0.236-0.324"/>
     <path id="Fill-11" fill="#5080B4" d="m47.271 11.299h0.177c0.332 0 0.609 0.137 0.609 0.519 0 0.386-0.239 0.52-0.653 0.52h-0.133v-1.039zm0 1.19h0.27c0.219 0.199 0.417 0.577 0.588 0.757 0.161 0.17 0.335 0.235 0.759 0.235 0.103 0 0.137 0 0.212-0.004v-0.141c-0.215-0.021-0.311-0.064-0.451-0.212-0.243-0.256-0.363-0.541-0.588-0.739 0.318-0.091 0.506-0.307 0.506-0.581 0-0.155-0.051-0.292-0.164-0.411-0.171-0.18-0.445-0.249-0.948-0.249-0.123 0-0.369 0.011-0.56 0.026-0.141 0.01-0.27 0.017-0.441 0.029v0.14h0.071c0.229 0 0.274 0.101 0.274 0.274v1.424c0 0.209-0.089 0.263-0.298 0.263h-0.055v0.141h1.198v-0.141h-0.103c-0.195 0-0.27-0.079-0.27-0.263v-0.548z"/>
     <path id="Fill-12" fill="#5080B4" d="m50.759 13.009c0 0.22 0.064 0.291 0.338 0.291v0.141h-0.827v-0.141h0.02c0.208 0 0.26-0.079 0.26-0.227v-1.655c-0.075-0.054-0.168-0.079-0.274-0.079v-0.14h0.705l1.395 1.535v-1.088c0-0.26-0.051-0.307-0.325-0.307h-0.034v-0.14h0.882v0.14h-0.034c-0.212 0-0.28 0.047-0.28 0.184v1.929h-0.188l-1.638-1.806v1.363"/>
     <path id="Fill-13" fill="#5080B4" d="m55.27 12.41h-0.602l0.287-0.844 0.315 0.844zm0.078 0.198l0.161 0.419c0.068 0.176 0.037 0.273-0.171 0.273h-0.12v0.141h1.111v-0.141c-0.177-0.014-0.252-0.086-0.342-0.324l-0.684-1.832h-0.506l0.038 0.105-0.585 1.72c-0.085 0.252-0.171 0.331-0.335 0.331h-0.051v0.141h0.906v-0.141h-0.045c-0.328 0-0.331-0.086-0.269-0.27l0.143-0.422h0.749z"/>
     <path id="Fill-14" fill="#5080B4" d="m58.555 13.03c0 0.187 0.055 0.27 0.298 0.27h0.082v0.141h-1.231v-0.141h0.116c0.188 0 0.264-0.079 0.264-0.27v-1.644h-0.404c-0.263 0-0.305 0.043-0.369 0.425h-0.14l0.061-0.674h0.11c0.027 0.025 0.044 0.043 0.064 0.05 0.024 0.008 0.052 0.012 0.1 0.012h1.627c0.093 0 0.11-0.008 0.165-0.062h0.109l0.061 0.674h-0.139c-0.066-0.378-0.106-0.425-0.37-0.425h-0.404v1.644"/>
     <path id="Fill-15" fill="#5080B4" d="m60.785 11.199h1.088v0.14h-0.059c-0.184 0-0.26 0.083-0.26 0.271v1.427c0 0.177 0.059 0.263 0.267 0.263h0.052v0.141h-1.088v-0.141h0.048c0.181 0 0.249-0.09 0.249-0.248v-1.442c0-0.188-0.061-0.271-0.253-0.271h-0.044v-0.14"/>
     <path id="Fill-16" fill="#5080B4" d="m63.78 12.183c0-0.545 0.284-0.898 0.718-0.898 0.52 0 0.794 0.54 0.794 1.121 0 0.498-0.222 0.93-0.698 0.93-0.482 0-0.814-0.464-0.814-1.153zm-0.509 0.173c0 0.606 0.458 1.136 1.245 1.136 0.817 0 1.285-0.574 1.285-1.215 0-0.675-0.506-1.147-1.22-1.147-0.763 0-1.31 0.512-1.31 1.226z"/>
     <path id="Fill-17" fill="#5080B4" d="m67.689 13.009c0 0.22 0.065 0.291 0.338 0.291v0.141h-0.827v-0.141h0.02c0.209 0 0.26-0.079 0.26-0.227v-1.655c-0.075-0.054-0.167-0.079-0.273-0.079v-0.14h0.704l1.395 1.535v-1.088c0-0.26-0.051-0.307-0.325-0.307h-0.034v-0.14h0.883v0.14h-0.035c-0.212 0-0.28 0.047-0.28 0.184v1.929h-0.188l-1.638-1.806v1.363"/>
     <path id="Fill-18" fill="#5080B4" d="m72.2 12.41h-0.602l0.287-0.844 0.315 0.844zm0.079 0.198l0.16 0.419c0.068 0.176 0.038 0.273-0.171 0.273h-0.12v0.141h1.111v-0.141c-0.177-0.014-0.252-0.086-0.341-0.324l-0.684-1.832h-0.506l0.037 0.105-0.585 1.72c-0.085 0.252-0.171 0.331-0.334 0.331h-0.051v0.141h0.906v-0.141h-0.045c-0.328 0-0.332-0.086-0.27-0.27l0.143-0.422h0.75z"/>
     <path id="Fill-19" fill="#5080B4" d="m76.31 13.441h-1.833v-0.141h0.058c0.219 0 0.284-0.083 0.284-0.259v-1.443c0-0.212-0.116-0.259-0.27-0.259h-0.065v-0.14h1.159v0.14h-0.099c-0.178 0-0.253 0.083-0.253 0.252v1.486c0 0.133 0.038 0.166 0.171 0.166h0.434c0.229 0 0.298-0.119 0.527-0.429h0.137l-0.25 0.627"/>
     <path id="Fill-20" fill="#736651" d="m33.994 18.815c0 0.237 0.08 0.32 0.352 0.32h0.165v0.084h-1.404v-0.084h0.164c0.272 0 0.352-0.083 0.352-0.32v-2.171h-0.775c-0.179 0-0.259 0.101-0.326 0.488h-0.08l0.072-0.712h0.084c0.004 0.026 0.022 0.044 0.049 0.053 0.027 0.008 0.058 0.013 0.089 0.013h2.145c0.063 0 0.129-0.013 0.138-0.066h0.085l0.071 0.712h-0.08c-0.067-0.387-0.147-0.488-0.325-0.488h-0.776v2.171"/>
     <path id="Fill-21" fill="#736651" d="m36.031 18.871c0 0.207 0.059 0.264 0.29 0.264v0.084h-0.891v-0.084c0.245-0.013 0.303-0.096 0.303-0.338v-2.105c0-0.096-0.018-0.131-0.112-0.144l-0.191-0.027v-0.075l0.53-0.18h0.071v1.441c0.295-0.171 0.509-0.277 0.736-0.277 0.344 0 0.495 0.212 0.495 0.655 0 0.4-0.009 0.646-0.022 0.883 0.009 0.119 0.076 0.167 0.339 0.167v0.084h-0.963v-0.084c0.116 0 0.2-0.022 0.25-0.07 0.08-0.079 0.098-0.268 0.098-0.923 0-0.47-0.259-0.531-0.406-0.531-0.148 0-0.308 0.07-0.527 0.206v1.054"/>
     <path id="Fill-22" fill="#736651" d="m39.452 18.103v-0.101c-0.147-0.145-0.134-0.572-0.736-0.572-0.544 0-0.861 0.475-0.861 0.941 0 0.51 0.339 0.9 0.776 0.9 0.326 0 0.607-0.219 0.794-0.452l-0.049-0.052c-0.169 0.197-0.344 0.285-0.566 0.285-0.353 0-0.678-0.308-0.678-0.765 0-0.056 0.009-0.118 0.018-0.184h1.302zm-1.289-0.114c0.103-0.409 0.326-0.475 0.473-0.475 0.214 0 0.392 0.189 0.441 0.475h-0.914z"/>
     <path id="Fill-23" fill="#736651" d="m42.289 17.813h-0.772l0.379-1.024 0.393 1.024zm0.075 0.193l0.299 0.8c0.018 0.044 0.049 0.11 0.049 0.18 0 0.123-0.093 0.149-0.348 0.149h-0.116v0.084h1.227v-0.084c-0.223 0-0.316-0.044-0.406-0.276l-0.932-2.439h-0.388l0.04 0.097-0.811 2.183c-0.143 0.383-0.192 0.431-0.482 0.435v0.084h1.03v-0.084h-0.071c-0.245 0-0.361-0.044-0.361-0.162 0-0.062 0.058-0.194 0.089-0.277l0.258-0.69h0.923z"/>
     <path id="Fill-24" fill="#736651" d="m43.711 18.775c0.054 0.264 0.223 0.413 0.424 0.413 0.178 0 0.317-0.132 0.317-0.29 0-0.092-0.023-0.149-0.143-0.268-0.317-0.312-0.669-0.343-0.669-0.707 0-0.29 0.232-0.493 0.571-0.493 0.12 0 0.245 0.027 0.356 0.071l0.009 0.4h-0.075c-0.032-0.224-0.179-0.365-0.357-0.365-0.147 0-0.272 0.101-0.272 0.246 0 0.387 0.829 0.453 0.829 0.988 0 0.286-0.241 0.501-0.553 0.501-0.084 0-0.147-0.012-0.196-0.03-0.049-0.013-0.085-0.026-0.12-0.026-0.027 0-0.054 0.017-0.076 0.052h-0.067l-0.049-0.492h0.071"/>
     <path id="Fill-25" fill="#736651" d="m44.986 18.775l0.049 0.492h0.067c0.023-0.035 0.049-0.052 0.076-0.052 0.036 0 0.071 0.013 0.12 0.026 0.05 0.018 0.112 0.03 0.197 0.03 0.312 0 0.553-0.215 0.553-0.501 0-0.535-0.83-0.601-0.83-0.988 0-0.145 0.125-0.246 0.272-0.246 0.179 0 0.326 0.141 0.357 0.365h0.076l-0.009-0.4c-0.112-0.044-0.237-0.071-0.357-0.071-0.339 0-0.571 0.203-0.571 0.493 0 0.364 0.353 0.395 0.669 0.707 0.121 0.119 0.143 0.176 0.143 0.268 0 0.158-0.138 0.29-0.317 0.29-0.2 0-0.37-0.149-0.423-0.413h-0.072"/>
     <path id="Fill-26" fill="#736651" d="m46.725 18.213c0-0.378 0.273-0.677 0.567-0.677 0.375 0 0.687 0.426 0.687 0.927 0 0.44-0.299 0.703-0.562 0.703-0.384 0-0.692-0.422-0.692-0.953zm-0.334 0.149c0 0.514 0.424 0.909 0.977 0.909 0.53 0 0.945-0.4 0.945-0.917 0-0.524-0.415-0.924-0.959-0.924-0.464 0-0.963 0.326-0.963 0.932z"/>
     <path id="Fill-27" fill="#736651" d="m50.257 18.815c-0.187 0.294-0.432 0.456-0.789 0.456-0.535 0-0.749-0.501-0.749-0.847 0-0.55 0.459-0.994 1.026-0.994 0.281 0 0.499 0.111 0.499 0.251 0 0.075-0.058 0.132-0.13 0.132-0.218 0-0.271-0.268-0.521-0.268-0.308 0-0.576 0.36-0.576 0.782 0 0.44 0.268 0.764 0.629 0.764 0.215 0 0.384-0.097 0.545-0.316l0.066 0.04"/>
     <path id="Fill-28" fill="#736651" d="m51.167 18.885c0 0.154 0.085 0.25 0.321 0.25v0.084h-0.99v-0.084c0.272 0 0.37-0.088 0.37-0.32v-0.884c0-0.171-0.022-0.193-0.138-0.215l-0.21-0.039v-0.071l0.58-0.197h0.067v1.476zm-0.183-2.465c0.107 0 0.196 0.075 0.196 0.167s-0.089 0.167-0.196 0.167-0.192-0.075-0.192-0.167 0.085-0.167 0.192-0.167z"/>
     <path id="Fill-29" fill="#736651" d="m52.081 17.857c-0.018-0.04-0.022-0.057-0.022-0.084 0-0.092 0.129-0.215 0.276-0.215 0.099 0 0.192 0.057 0.25 0.127 0.076 0.088 0.076 0.158 0.076 0.281v0.348c-0.156 0.092-0.304 0.145-0.397 0.167-0.285 0.07-0.526 0.162-0.526 0.43 0 0.216 0.156 0.36 0.414 0.36 0.121 0 0.21-0.017 0.518-0.267 0.004 0.07 0.022 0.267 0.205 0.267 0.075 0 0.201-0.048 0.441-0.241l-0.022-0.066c-0.112 0.092-0.169 0.096-0.218 0.096-0.116 0-0.116-0.078-0.116-0.43v-0.588c0-0.229 0-0.286-0.067-0.379-0.125-0.171-0.335-0.233-0.469-0.233-0.29 0-0.66 0.356-0.66 0.51 0 0.022 0.005 0.035 0.014 0.062l0.303-0.145zm0.58 1.067c-0.25 0.172-0.304 0.194-0.375 0.194-0.134 0-0.263-0.101-0.263-0.259 0-0.18 0.103-0.224 0.375-0.334 0.107-0.044 0.178-0.075 0.263-0.123v0.522z"/>
     <path id="Fill-30" fill="#736651" d="m54.614 17.479l-0.071 0.193h-0.567v1.024c0 0.277 0.201 0.369 0.295 0.369 0.098 0 0.187-0.074 0.272-0.22l0.071 0.066c-0.107 0.229-0.281 0.36-0.486 0.36-0.263 0-0.451-0.215-0.451-0.509v-1.09h-0.205v-0.07c0.174-0.084 0.326-0.286 0.429-0.558h0.075v0.435h0.638"/>
     <path id="Fill-31" fill="#736651" d="m55.394 18.885c0 0.154 0.085 0.25 0.322 0.25v0.084h-0.991v-0.084c0.273 0 0.37-0.088 0.37-0.32v-0.884c0-0.171-0.022-0.193-0.138-0.215l-0.209-0.039v-0.071l0.579-0.197h0.067v1.476zm-0.183-2.465c0.108 0 0.197 0.075 0.197 0.167s-0.089 0.167-0.197 0.167c-0.106 0-0.192-0.075-0.192-0.167s0.086-0.167 0.192-0.167z"/>
     <path id="Fill-32" fill="#736651" d="m56.34 18.213c0-0.378 0.272-0.677 0.566-0.677 0.374 0 0.687 0.426 0.687 0.927 0 0.44-0.299 0.703-0.562 0.703-0.384 0-0.691-0.422-0.691-0.953zm-0.335 0.149c0 0.514 0.424 0.909 0.977 0.909 0.53 0 0.945-0.4 0.945-0.917 0-0.524-0.415-0.924-0.959-0.924-0.464 0-0.963 0.326-0.963 0.932z"/>
     <path id="Fill-33" fill="#736651" d="m58.841 18.837c0 0.241 0.058 0.298 0.299 0.298v0.084h-0.896v-0.084c0.196 0 0.299-0.105 0.299-0.276v-0.923c0-0.163-0.018-0.194-0.134-0.216l-0.152-0.03v-0.071l0.513-0.184h0.071v0.343c0.299-0.185 0.549-0.348 0.767-0.348 0.304 0 0.477 0.22 0.477 0.66 0 0.584-0.031 0.698-0.035 0.869-0.005 0.119 0.066 0.176 0.249 0.176h0.098v0.084h-0.958v-0.084c0.129-0.004 0.205-0.035 0.254-0.083 0.085-0.084 0.093-0.404 0.093-0.989 0-0.351-0.173-0.461-0.352-0.461-0.142 0-0.361 0.123-0.593 0.281v0.954"/>
     <path id="Fill-34" fill="#736651" d="m62.226 18.213c0-0.378 0.272-0.677 0.566-0.677 0.375 0 0.687 0.426 0.687 0.927 0 0.44-0.299 0.703-0.562 0.703-0.383 0-0.691-0.422-0.691-0.953zm-0.334 0.149c0 0.514 0.423 0.909 0.976 0.909 0.531 0 0.946-0.4 0.946-0.917 0-0.524-0.415-0.924-0.96-0.924-0.463 0-0.962 0.326-0.962 0.932z"/>
     <path id="Fill-35" fill="#736651" d="m65.196 17.672h-0.482v1.204c0 0.202 0.08 0.259 0.33 0.259h0.169v0.084h-1.101v-0.084c0.259 0 0.303-0.057 0.303-0.303v-1.16h-0.33v-0.074c0.125-0.027 0.232-0.067 0.33-0.119 0-0.365 0.08-0.641 0.344-0.901 0.218-0.215 0.428-0.312 0.633-0.312 0.25 0 0.459 0.141 0.459 0.207 0 0.035-0.084 0.211-0.12 0.211-0.063 0-0.227-0.216-0.522-0.216-0.321 0-0.495 0.251-0.495 0.677v0.334h0.45l0.032 0.193"/>
     <path id="Fill-36" fill="#736651" d="m69.339 17.206c-0.148-0.408-0.531-0.676-1.017-0.676-0.745 0-1.209 0.532-1.209 1.27 0 0.795 0.58 1.379 1.258 1.379 0.352 0 0.785-0.119 1.088-0.65h0.084c-0.057 0.198-0.178 0.47-0.285 0.642-0.285-0.04-0.481 0.118-1.008 0.118-0.905 0-1.556-0.589-1.556-1.401 0-0.853 0.669-1.468 1.601-1.468 0.562 0 0.803 0.176 0.941 0.176 0.049 0 0.071-0.013 0.08-0.027h0.067l0.04 0.637h-0.084"/>
     <path id="Fill-37" fill="#736651" d="m70.427 18.898c0 0.18 0.066 0.237 0.289 0.237h0.169v0.084h-1.056v-0.084c0.228-0.004 0.299-0.096 0.299-0.329v-1.015l-0.299-0.106v-0.074l0.509-0.176h0.089v0.466h0.008c0.223-0.36 0.277-0.444 0.424-0.444 0.054 0 0.067 0.004 0.152 0.04 0.044 0.017 0.124 0.034 0.232 0.065l-0.108 0.264c-0.067-0.009-0.151-0.031-0.236-0.07-0.049-0.022-0.103-0.044-0.156-0.044-0.08 0-0.129 0.053-0.174 0.114-0.058 0.079-0.107 0.154-0.142 0.22v0.852"/>
     <path id="Fill-38" fill="#736651" d="m71.631 17.989c0.103-0.409 0.326-0.475 0.473-0.475 0.214 0 0.393 0.189 0.441 0.475h-0.914zm1.289 0.114v-0.101c-0.147-0.145-0.134-0.572-0.736-0.572-0.544 0-0.86 0.475-0.86 0.941 0 0.51 0.339 0.9 0.776 0.9 0.325 0 0.606-0.219 0.793-0.452l-0.049-0.052c-0.169 0.197-0.343 0.285-0.566 0.285-0.352 0-0.678-0.308-0.678-0.765 0-0.056 0.009-0.118 0.018-0.184h1.302z"/>
     <path id="Fill-39" fill="#736651" d="m74.659 18.863c-0.196 0.136-0.388 0.22-0.526 0.22-0.321 0-0.58-0.369-0.58-0.809 0-0.413 0.228-0.725 0.576-0.725 0.209 0 0.369 0.097 0.53 0.33v0.984zm0-1.349c-0.12-0.048-0.303-0.084-0.437-0.084-0.544 0-0.967 0.444-0.967 0.994 0 0.47 0.316 0.847 0.713 0.847 0.169 0 0.401-0.105 0.691-0.312v0.312h0.054l0.57-0.219v-0.093l-0.106 0.032c-0.126 0.035-0.219 0.003-0.219-0.146v-2.579l-0.62 0.18v0.075l0.147 0.017c0.143 0.018 0.174 0.04 0.174 0.123v0.853z"/>
     <path id="Fill-40" fill="#736651" d="m76.042 18.885c0 0.154 0.084 0.25 0.321 0.25v0.084h-0.99v-0.084c0.272 0 0.37-0.088 0.37-0.32v-0.884c0-0.171-0.022-0.193-0.138-0.215l-0.21-0.039v-0.071l0.58-0.197h0.067v1.476zm-0.183-2.465c0.107 0 0.196 0.075 0.196 0.167s-0.089 0.167-0.196 0.167-0.192-0.075-0.192-0.167 0.085-0.167 0.192-0.167z"/>
     <path id="Fill-41" fill="#736651" d="m77.723 17.479l-0.071 0.193h-0.567v1.024c0 0.277 0.201 0.369 0.294 0.369 0.099 0 0.187-0.074 0.273-0.22l0.071 0.066c-0.107 0.229-0.281 0.36-0.487 0.36-0.263 0-0.45-0.215-0.45-0.509v-1.09h-0.205v-0.07c0.174-0.084 0.326-0.286 0.428-0.558h0.076v0.435h0.638"/>
     <path id="Fill-42" fill="#736651" d="m31.357 24.144c-0.25 0.171-0.304 0.193-0.375 0.193-0.134 0-0.263-0.101-0.263-0.259 0-0.18 0.102-0.224 0.374-0.334 0.107-0.044 0.179-0.075 0.264-0.123v0.523zm-0.58-1.068c-0.018-0.04-0.023-0.057-0.023-0.083 0-0.093 0.13-0.216 0.277-0.216 0.098 0 0.192 0.057 0.25 0.128 0.076 0.088 0.076 0.158 0.076 0.281v0.347c-0.157 0.092-0.304 0.145-0.397 0.167-0.286 0.07-0.526 0.162-0.526 0.43 0 0.216 0.156 0.361 0.414 0.361 0.121 0 0.21-0.018 0.517-0.268 0.005 0.07 0.023 0.268 0.206 0.268 0.075 0 0.2-0.048 0.441-0.242l-0.022-0.066c-0.112 0.092-0.17 0.097-0.219 0.097-0.116 0-0.116-0.079-0.116-0.431v-0.588c0-0.229 0-0.286-0.066-0.379-0.126-0.171-0.335-0.232-0.469-0.232-0.29 0-0.66 0.356-0.66 0.509 0 0.023 0.005 0.035 0.014 0.062l0.303-0.145z"/>
     <path id="Fill-43" fill="#736651" d="m32.752 24.056c0 0.242 0.058 0.299 0.299 0.299v0.083h-0.896v-0.083c0.196 0 0.299-0.106 0.299-0.277v-0.923c0-0.162-0.018-0.193-0.134-0.215l-0.152-0.031v-0.07l0.513-0.185h0.071v0.343c0.299-0.185 0.549-0.347 0.767-0.347 0.304 0 0.478 0.22 0.478 0.659 0 0.584-0.032 0.698-0.036 0.87-0.005 0.119 0.067 0.176 0.25 0.176h0.098v0.083h-0.959v-0.083c0.129-0.005 0.205-0.036 0.254-0.084 0.085-0.084 0.094-0.404 0.094-0.989 0-0.351-0.174-0.461-0.353-0.461-0.142 0-0.361 0.123-0.593 0.281v0.954"/>
     <path id="Fill-44" fill="#736651" d="m35.959 24.082c-0.197 0.137-0.388 0.22-0.527 0.22-0.321 0-0.58-0.369-0.58-0.808 0-0.413 0.228-0.725 0.576-0.725 0.21 0 0.37 0.096 0.531 0.329v0.984zm0-1.349c-0.121-0.048-0.304-0.083-0.437-0.083-0.544 0-0.968 0.444-0.968 0.993 0 0.47 0.316 0.848 0.713 0.848 0.17 0 0.402-0.105 0.692-0.312v0.312h0.053l0.571-0.22v-0.092l-0.107 0.031c-0.125 0.035-0.218 0.004-0.218-0.146v-2.579l-0.62 0.18v0.076l0.146 0.017c0.143 0.018 0.175 0.039 0.175 0.123v0.852z"/>
     <path id="Fill-45" fill="#736651" d="m40.708 22.426c-0.148-0.409-0.531-0.677-1.017-0.677-0.745 0-1.208 0.532-1.208 1.27 0 0.795 0.579 1.379 1.257 1.379 0.352 0 0.785-0.118 1.088-0.65h0.085c-0.058 0.198-0.179 0.471-0.286 0.642-0.285-0.04-0.481 0.119-1.007 0.119-0.905 0-1.557-0.589-1.557-1.402 0-0.853 0.669-1.468 1.601-1.468 0.562 0 0.803 0.176 0.941 0.176 0.049 0 0.071-0.013 0.08-0.026h0.067l0.04 0.637h-0.084"/>
     <path id="Fill-46" fill="#736651" d="m41.617 23.432c0-0.378 0.272-0.677 0.566-0.677 0.375 0 0.687 0.427 0.687 0.927 0 0.44-0.298 0.704-0.561 0.704-0.384 0-0.692-0.423-0.692-0.954zm-0.334 0.15c0 0.513 0.423 0.909 0.977 0.909 0.53 0 0.945-0.4 0.945-0.918 0-0.523-0.415-0.923-0.959-0.923-0.464 0-0.963 0.325-0.963 0.932z"/>
     <path id="Fill-47" fill="#736651" d="m44.101 24.091c0 0.18 0.085 0.264 0.259 0.264h0.076v0.083h-1.004v-0.083c0.286 0 0.37-0.084 0.37-0.295v-2.122c0-0.123-0.013-0.162-0.138-0.176l-0.201-0.021v-0.076l0.571-0.18h0.067v2.606"/>
     <path id="Fill-48" fill="#736651" d="m45.172 21.485h-0.067l-0.571 0.18v0.076l0.2 0.021c0.125 0.014 0.138 0.053 0.138 0.176v2.122c0 0.211-0.084 0.295-0.369 0.295v0.083h1.003v-0.083h-0.076c-0.174 0-0.258-0.084-0.258-0.264v-2.606"/>
     <path id="Fill-49" fill="#736651" d="m46.067 23.208c0.103-0.409 0.326-0.475 0.473-0.475 0.214 0 0.393 0.189 0.442 0.475h-0.915zm1.29 0.114v-0.101c-0.148-0.145-0.134-0.571-0.736-0.571-0.544 0-0.861 0.474-0.861 0.94 0 0.51 0.339 0.901 0.776 0.901 0.325 0 0.606-0.22 0.794-0.453l-0.05-0.052c-0.169 0.197-0.343 0.285-0.566 0.285-0.352 0-0.678-0.308-0.678-0.765 0-0.056 0.009-0.118 0.018-0.184h1.303z"/>
     <path id="Fill-50" fill="#736651" d="m49.242 24.034c-0.187 0.294-0.432 0.457-0.789 0.457-0.535 0-0.749-0.501-0.749-0.848 0-0.549 0.459-0.993 1.026-0.993 0.281 0 0.499 0.109 0.499 0.25 0 0.075-0.057 0.132-0.129 0.132-0.219 0-0.272-0.268-0.522-0.268-0.307 0-0.575 0.36-0.575 0.782 0 0.44 0.268 0.764 0.629 0.764 0.214 0 0.383-0.096 0.544-0.316l0.066 0.04"/>
     <path id="Fill-51" fill="#736651" d="m50.674 22.698l-0.071 0.194h-0.567v1.023c0 0.277 0.201 0.369 0.294 0.369 0.098 0 0.188-0.074 0.273-0.22l0.071 0.066c-0.107 0.229-0.281 0.361-0.486 0.361-0.263 0-0.451-0.216-0.451-0.51v-1.089h-0.205v-0.071c0.174-0.083 0.326-0.285 0.429-0.558h0.075v0.435h0.638"/>
     <path id="Fill-52" fill="#736651" d="m51.08 21.806c0 0.092 0.084 0.167 0.192 0.167 0.106 0 0.196-0.075 0.196-0.167s-0.09-0.167-0.196-0.167c-0.108 0-0.192 0.075-0.192 0.167zm0.374 0.822h-0.066l-0.58 0.198v0.07l0.209 0.039c0.116 0.023 0.139 0.044 0.139 0.216v0.883c0 0.233-0.099 0.321-0.371 0.321v0.083h0.99v-0.083c-0.236 0-0.321-0.097-0.321-0.251v-1.476z"/>
     <path id="Fill-53" fill="#736651" d="m52.4 23.432c0-0.378 0.271-0.677 0.566-0.677 0.375 0 0.687 0.427 0.687 0.927 0 0.44-0.299 0.704-0.562 0.704-0.384 0-0.691-0.423-0.691-0.954zm-0.335 0.15c0 0.513 0.424 0.909 0.977 0.909 0.53 0 0.945-0.4 0.945-0.918 0-0.523-0.415-0.923-0.958-0.923-0.464 0-0.964 0.325-0.964 0.932z"/>
     <path id="Fill-54" fill="#736651" d="m54.901 24.056c0 0.242 0.058 0.299 0.299 0.299v0.083h-0.896v-0.083c0.196 0 0.298-0.106 0.298-0.277v-0.923c0-0.162-0.017-0.193-0.133-0.215l-0.152-0.031v-0.07l0.513-0.185h0.071v0.343c0.299-0.185 0.549-0.347 0.767-0.347 0.304 0 0.477 0.22 0.477 0.659 0 0.584-0.031 0.698-0.035 0.87-0.005 0.119 0.067 0.176 0.25 0.176h0.098v0.083h-0.959v-0.083c0.129-0.005 0.205-0.036 0.254-0.084 0.084-0.084 0.094-0.404 0.094-0.989 0-0.351-0.174-0.461-0.353-0.461-0.142 0-0.361 0.123-0.593 0.281v0.954"/>
     <path id="Fill-55" fill="#736651" d="m58.643 21.767c0.107-0.018 0.205-0.018 0.307-0.018 0.593 0 0.732 0.339 0.732 0.681 0 0.444-0.312 0.769-0.799 0.769-0.084 0-0.183-0.022-0.24-0.035v-1.397zm0 1.48c0.134 0.027 0.245 0.035 0.379 0.035 0.66 0 1.079-0.324 1.079-0.839 0-0.338-0.214-0.778-1.146-0.778-0.121 0-0.335 0.005-0.553 0.014-0.219 0.009-0.437 0.022-0.562 0.026v0.084h0.223c0.156 0 0.21 0.07 0.21 0.232v2.079c0 0.207-0.067 0.255-0.299 0.255h-0.062v0.083h1.234v-0.083h-0.147c-0.281 0-0.356-0.092-0.356-0.339v-0.769z"/>
     <path id="Fill-56" fill="#736651" d="m60.975 24.118c0 0.18 0.067 0.237 0.29 0.237h0.169v0.083h-1.057v-0.083c0.227-0.005 0.299-0.097 0.299-0.33v-1.015l-0.299-0.105v-0.075l0.508-0.176h0.09v0.466h0.009c0.223-0.361 0.276-0.444 0.423-0.444 0.054 0 0.067 0.005 0.152 0.04 0.044 0.017 0.125 0.035 0.232 0.066l-0.107 0.263c-0.067-0.009-0.152-0.03-0.236-0.07-0.049-0.022-0.103-0.044-0.157-0.044-0.08 0-0.129 0.053-0.174 0.114-0.058 0.079-0.107 0.154-0.142 0.22v0.853"/>
     <path id="Fill-57" fill="#736651" d="m62.149 23.432c0-0.378 0.272-0.677 0.566-0.677 0.374 0 0.686 0.427 0.686 0.927 0 0.44-0.298 0.704-0.561 0.704-0.384 0-0.691-0.423-0.691-0.954zm-0.335 0.15c0 0.513 0.424 0.909 0.977 0.909 0.53 0 0.945-0.4 0.945-0.918 0-0.523-0.415-0.923-0.959-0.923-0.464 0-0.963 0.325-0.963 0.932z"/>
     <path id="Fill-58" fill="#736651" d="m65.118 22.892h-0.481v1.203c0 0.203 0.08 0.26 0.33 0.26h0.169v0.083h-1.101v-0.083c0.259 0 0.303-0.057 0.303-0.304v-1.159h-0.33v-0.075c0.125-0.027 0.232-0.066 0.33-0.119 0-0.365 0.08-0.641 0.343-0.901 0.219-0.215 0.429-0.312 0.634-0.312 0.249 0 0.459 0.141 0.459 0.207 0 0.035-0.085 0.211-0.12 0.211-0.063 0-0.228-0.215-0.522-0.215-0.322 0-0.495 0.25-0.495 0.676v0.334h0.45l0.031 0.194"/>
     <path id="Fill-59" fill="#736651" d="m65.654 23.322c-0.009 0.066-0.018 0.128-0.018 0.184 0 0.457 0.325 0.765 0.677 0.765 0.224 0 0.397-0.088 0.567-0.285l0.049 0.052c-0.187 0.233-0.468 0.453-0.794 0.453-0.437 0-0.776-0.391-0.776-0.901 0-0.466 0.317-0.94 0.861-0.94 0.602 0 0.588 0.426 0.735 0.571v0.101h-1.301zm0.927-0.114c-0.049-0.286-0.227-0.475-0.442-0.475-0.147 0-0.37 0.066-0.472 0.475h0.914z"/>
     <path id="Fill-60" fill="#736651" d="m67.312 23.994c0.054 0.264 0.223 0.413 0.424 0.413 0.179 0 0.317-0.132 0.317-0.289 0-0.093-0.023-0.15-0.143-0.269-0.317-0.312-0.669-0.343-0.669-0.707 0-0.29 0.232-0.492 0.571-0.492 0.121 0 0.245 0.026 0.356 0.07l0.009 0.4h-0.075c-0.031-0.224-0.179-0.365-0.357-0.365-0.147 0-0.272 0.101-0.272 0.246 0 0.387 0.829 0.453 0.829 0.989 0 0.285-0.24 0.501-0.552 0.501-0.085 0-0.148-0.013-0.197-0.031-0.049-0.013-0.085-0.026-0.12-0.026-0.027 0-0.054 0.017-0.076 0.053h-0.067l-0.049-0.493h0.071"/>
     <path id="Fill-61" fill="#736651" d="m68.659 23.994c0.053 0.264 0.223 0.413 0.424 0.413 0.178 0 0.316-0.132 0.316-0.289 0-0.093-0.022-0.15-0.142-0.269-0.317-0.312-0.669-0.343-0.669-0.707 0-0.29 0.232-0.492 0.57-0.492 0.121 0 0.246 0.026 0.357 0.07l0.009 0.4h-0.076c-0.031-0.224-0.178-0.365-0.356-0.365-0.148 0-0.272 0.101-0.272 0.246 0 0.387 0.829 0.453 0.829 0.989 0 0.285-0.241 0.501-0.553 0.501-0.084 0-0.147-0.013-0.196-0.031-0.049-0.013-0.085-0.026-0.121-0.026-0.026 0-0.053 0.017-0.076 0.053h-0.066l-0.049-0.493h0.071"/>
     <path id="Fill-62" fill="#736651" d="m70.541 24.104c0 0.154 0.084 0.251 0.321 0.251v0.083h-0.99v-0.083c0.272 0 0.37-0.088 0.37-0.321v-0.883c0-0.172-0.023-0.193-0.138-0.216l-0.21-0.039v-0.07l0.58-0.198h0.067v1.476zm-0.183-2.465c0.107 0 0.196 0.075 0.196 0.167s-0.089 0.167-0.196 0.167-0.192-0.075-0.192-0.167 0.085-0.167 0.192-0.167z"/>
     <path id="Fill-63" fill="#736651" d="m71.486 23.432c0-0.378 0.272-0.677 0.566-0.677 0.375 0 0.687 0.427 0.687 0.927 0 0.44-0.299 0.704-0.562 0.704-0.383 0-0.691-0.423-0.691-0.954zm-0.334 0.15c0 0.513 0.423 0.909 0.976 0.909 0.531 0 0.946-0.4 0.946-0.918 0-0.523-0.415-0.923-0.959-0.923-0.464 0-0.963 0.325-0.963 0.932z"/>
     <path id="Fill-64" fill="#736651" d="m73.988 24.056c0 0.242 0.058 0.299 0.298 0.299v0.083h-0.896v-0.083c0.196 0 0.299-0.106 0.299-0.277v-0.923c0-0.162-0.018-0.193-0.134-0.215l-0.151-0.031v-0.07l0.513-0.185h0.071v0.343c0.298-0.185 0.548-0.347 0.767-0.347 0.303 0 0.477 0.22 0.477 0.659 0 0.584-0.031 0.698-0.036 0.87-0.004 0.119 0.067 0.176 0.25 0.176h0.098v0.083h-0.959v-0.083c0.13-0.005 0.206-0.036 0.255-0.084 0.084-0.084 0.093-0.404 0.093-0.989 0-0.351-0.174-0.461-0.352-0.461-0.143 0-0.362 0.123-0.593 0.281v0.954"/>
     <path id="Fill-65" fill="#736651" d="m76.681 24.144c-0.249 0.171-0.303 0.193-0.374 0.193-0.134 0-0.263-0.101-0.263-0.259 0-0.18 0.102-0.224 0.374-0.334 0.107-0.044 0.178-0.075 0.263-0.123v0.523zm-0.58-1.068c-0.018-0.04-0.022-0.057-0.022-0.083 0-0.093 0.129-0.216 0.277-0.216 0.098 0 0.191 0.057 0.25 0.128 0.075 0.088 0.075 0.158 0.075 0.281v0.347c-0.156 0.092-0.303 0.145-0.397 0.167-0.285 0.07-0.526 0.162-0.526 0.43 0 0.216 0.156 0.361 0.415 0.361 0.12 0 0.209-0.018 0.517-0.268 0.004 0.07 0.022 0.268 0.205 0.268 0.076 0 0.201-0.048 0.442-0.242l-0.023-0.066c-0.111 0.092-0.169 0.097-0.218 0.097-0.116 0-0.116-0.079-0.116-0.431v-0.588c0-0.229 0-0.286-0.067-0.379-0.125-0.171-0.335-0.232-0.468-0.232-0.29 0-0.66 0.356-0.66 0.509 0 0.023 0.004 0.035 0.013 0.062l0.303-0.145z"/>
     <path id="Fill-66" fill="#736651" d="m78.059 24.091c0 0.18 0.085 0.264 0.258 0.264h0.076v0.083h-1.003v-0.083c0.285 0 0.37-0.084 0.37-0.295v-2.122c0-0.123-0.013-0.162-0.138-0.176l-0.2-0.021v-0.076l0.57-0.18h0.067v2.606"/>
     <path id="Fill-67" fill="#736651" d="m78.576 23.994l0.049 0.493h0.067c0.023-0.036 0.049-0.053 0.076-0.053 0.036 0 0.071 0.013 0.12 0.026 0.049 0.018 0.112 0.031 0.197 0.031 0.312 0 0.553-0.216 0.553-0.501 0-0.536-0.83-0.602-0.83-0.989 0-0.145 0.125-0.246 0.272-0.246 0.179 0 0.326 0.141 0.357 0.365h0.076l-0.009-0.4c-0.112-0.044-0.237-0.07-0.357-0.07-0.339 0-0.571 0.202-0.571 0.492 0 0.364 0.353 0.395 0.669 0.707 0.12 0.119 0.143 0.176 0.143 0.269 0 0.157-0.138 0.289-0.317 0.289-0.2 0-0.37-0.149-0.423-0.413h-0.072"/>
    </g>
   </g>
  </g>
 </g>
</svg>
