<?xml version="1.0" encoding="UTF-8" standalone="no"?>
<svg width="50px" height="50px" viewBox="0 0 50 50" version="1.1" xmlns="http://www.w3.org/2000/svg" xmlns:xlink="http://www.w3.org/1999/xlink" xmlns:sketch="http://www.bohemiancoding.com/sketch/ns">
    <!-- Generator: Sketch 3.3.2 (12043) - http://www.bohemiancoding.com/sketch -->
    <title>browser-code</title>
    <desc>Created with Sketch.</desc>
    <defs></defs>
    <g id="Page-1" stroke="none" stroke-width="1" fill="none" fill-rule="evenodd" sketch:type="MSPage">
        <g id="Home" sketch:type="MSArtboardGroup" transform="translate(-486.000000, -1280.000000)" fill="#899CAB">
            <g id="browser-code" sketch:type="MSLayerGroup" transform="translate(486.000000, 1280.000000)">
                <path d="M17.293,33.873 L10.586,27.166 L17.293,20.459 L18.707,21.873 L13.414,27.166 L18.707,32.459 L17.293,33.873" id="Fill-1" sketch:type="MSShapeGroup"></path>
                <path d="M33.707,33.364 L32.293,31.95 L37.243,27 L32.293,22.05 L33.707,20.636 L40.071,27 L33.707,33.364" id="Fill-2" sketch:type="MSShapeGroup"></path>
                <path d="M22.939,36.187 L21.061,35.504 L27.217,18.59 L29.096,19.273 L22.939,36.187" id="Fill-3" sketch:type="MSShapeGroup"></path>
                <path d="M0,0 L50,0 L50,50 L0,50 L0,0 Z M2,48 L48,48 L48,2 L2,2 L2,48 Z" id="Fill-4" sketch:type="MSShapeGroup"></path>
                <path d="M1,8 L49,8 L49,10 L1,10 L1,8 Z" id="Fill-5" sketch:type="MSShapeGroup"></path>
                <path d="M5,4 L7,4 L7,6 L5,6 L5,4 Z" id="Fill-6" sketch:type="MSShapeGroup"></path>
                <path d="M9,4 L11,4 L11,6 L9,6 L9,4 Z" id="Fill-7" sketch:type="MSShapeGroup"></path>
                <path d="M13,4 L15,4 L15,6 L13,6 L13,4 Z" id="Fill-8" sketch:type="MSShapeGroup"></path>
            </g>
        </g>
    </g>
</svg>