<?xml version="1.0" encoding="UTF-8" standalone="no"?>
<svg width="40px" height="53px" viewBox="0 0 40 53" version="1.1" xmlns="http://www.w3.org/2000/svg" xmlns:xlink="http://www.w3.org/1999/xlink" xmlns:sketch="http://www.bohemiancoding.com/sketch/ns">
    <!-- Generator: Sketch 3.3.2 (12043) - http://www.bohemiancoding.com/sketch -->
    <title>flag</title>
    <desc>Created with Sketch.</desc>
    <defs></defs>
    <g id="Page-1" stroke="none" stroke-width="1" fill="none" fill-rule="evenodd" sketch:type="MSPage">
        <g id="Home" sketch:type="MSArtboardGroup" transform="translate(-139.000000, -1275.000000)" fill="#899CAB">
            <g id="flag" sketch:type="MSLayerGroup" transform="translate(139.000000, 1275.000000)">
                <path d="M23.031,39.318 L23.008,36.937 C22.954,31.299 18.322,26.667 12.684,26.613 C5.965,26.549 0.444,21.029 0.38,14.31 L0.376,13.89 L13.414,0.851 L13.437,3.232 C13.491,8.87 18.123,13.502 23.762,13.556 C30.481,13.62 36.001,19.14 36.065,25.859 L36.069,26.279 L23.031,39.318 L23.031,39.318 Z M2.392,14.702 C2.661,20.151 7.203,24.56 12.704,24.613 C18.678,24.671 23.703,29.039 24.79,34.73 L34.054,25.467 C33.784,20.018 29.242,15.608 23.742,15.556 C17.768,15.498 12.742,11.13 11.655,5.44 L2.392,14.702 L2.392,14.702 Z" id="Fill-1" sketch:type="MSShapeGroup"></path>
                <path d="M9.821,52.528 L8.407,51.114 L37.894,21.627 L39.308,23.041 L9.821,52.528" id="Fill-2" sketch:type="MSShapeGroup"></path>
            </g>
        </g>
    </g>
</svg>