<?xml version="1.0" encoding="UTF-8" standalone="no"?>
<svg width="77px" height="29px" viewBox="0 0 77 29" version="1.1" xmlns="http://www.w3.org/2000/svg" xmlns:xlink="http://www.w3.org/1999/xlink" xmlns:sketch="http://www.bohemiancoding.com/sketch/ns">
    <!-- Generator: Sketch 3.3.2 (12043) - http://www.bohemiancoding.com/sketch -->
    <title>logo-bbb</title>
    <desc>Created with Sketch.</desc>
    <defs></defs>
    <g id="Page-1" stroke="none" stroke-width="1" fill="none" fill-rule="evenodd" sketch:type="MSPage">
        <g id="Home" sketch:type="MSArtboardGroup" transform="translate(-1084.000000, -1867.000000)">
            <g id="Footer" sketch:type="MSLayerGroup" transform="translate(0.000000, 1774.000000)">
                <g id="logo-bbb" transform="translate(1084.000000, 93.000000)" sketch:type="MSShapeGroup">
                    <path d="M4.946,28.009 C2.712,28.009 0.895,26.191 0.895,23.958 L0.895,5.413 C0.895,3.18 2.712,1.362 4.946,1.362 L72.317,1.362 C74.551,1.362 76.368,3.18 76.368,5.413 L76.368,23.958 C76.368,26.191 74.551,28.009 72.317,28.009 L4.946,28.009" id="Fill-1" fill="#1B5168"></path>
                    <path d="M72.317,1.862 C74.278,1.862 75.868,3.452 75.868,5.413 L75.868,23.958 C75.868,25.919 74.278,27.509 72.317,27.509 L4.946,27.509 C2.984,27.509 1.395,25.919 1.395,23.958 L1.395,5.413 C1.395,3.452 2.984,1.862 4.946,1.862 L72.317,1.862 M72.317,0.862 L4.946,0.862 C2.436,0.862 0.395,2.904 0.395,5.413 L0.395,23.958 C0.395,26.467 2.436,28.509 4.946,28.509 L72.317,28.509 C74.826,28.509 76.868,26.467 76.868,23.958 L76.868,5.413 C76.868,2.904 74.826,0.862 72.317,0.862" id="Fill-2" fill="#163442"></path>
                    <path d="M27.499,1.862 L4.946,1.862 C2.984,1.862 1.395,3.452 1.395,5.413 L1.395,23.958 C1.395,25.919 2.984,27.509 4.946,27.509 L27.499,27.509 L27.499,1.862" id="Fill-3" fill="#FFFFFF"></path>
                    <path d="M13.771,9.836 L12.661,11.363 C12.105,12.129 12.277,13.486 13.037,14.034 L15.093,15.519 C15.446,15.773 15.474,16.026 15.307,16.295 L15.605,16.517 L16.646,15.075 C17.289,14.184 17.234,12.971 16.279,12.276 L14.206,10.766 C13.957,10.585 13.932,10.333 14.069,10.049 L13.771,9.836" id="Fill-4" fill="#1B5168"></path>
                    <path d="M15.55,3.083 L13.823,5.471 C13.013,6.591 13.308,8.504 14.414,9.316 L17.253,11.399 C17.829,11.822 17.904,12.897 17.485,13.449 L17.726,13.629 L19.684,10.874 C20.563,9.637 20.512,7.809 19.131,6.807 L16.095,4.602 C15.67,4.293 15.457,3.769 15.811,3.268 L15.55,3.083" id="Fill-5" fill="#1B5168"></path>
                    <path d="M10.999,18.06 L13.288,18.06 L13.696,19.447 L17.435,19.447 L17.843,18.06 L20.131,18.06 L19.831,17.04 L11.299,17.04 L10.999,18.06" id="Fill-6" fill="#1B5168"></path>
                    <path d="M22.817,25.178 C22.817,25.156 22.814,25.138 22.808,25.122 C22.803,25.105 22.794,25.091 22.781,25.077 C22.767,25.064 22.75,25.051 22.728,25.04 C22.707,25.028 22.68,25.017 22.647,25.006 C22.618,24.995 22.594,24.986 22.576,24.977 C22.558,24.969 22.544,24.96 22.534,24.951 C22.524,24.942 22.517,24.933 22.514,24.923 C22.511,24.914 22.509,24.903 22.509,24.891 C22.509,24.88 22.511,24.869 22.515,24.859 C22.519,24.849 22.526,24.841 22.535,24.833 C22.544,24.825 22.556,24.819 22.571,24.815 C22.585,24.81 22.602,24.808 22.622,24.808 C22.652,24.808 22.677,24.812 22.699,24.821 C22.72,24.83 22.742,24.843 22.762,24.861 L22.804,24.811 C22.78,24.792 22.754,24.777 22.726,24.766 C22.699,24.756 22.666,24.75 22.627,24.75 C22.599,24.75 22.575,24.753 22.552,24.76 C22.529,24.766 22.51,24.776 22.494,24.789 C22.479,24.801 22.466,24.817 22.457,24.835 C22.449,24.852 22.444,24.873 22.444,24.895 C22.444,24.916 22.447,24.934 22.453,24.95 C22.459,24.965 22.468,24.98 22.481,24.992 C22.494,25.005 22.511,25.017 22.533,25.028 C22.554,25.039 22.581,25.05 22.613,25.061 C22.639,25.07 22.661,25.079 22.679,25.088 C22.697,25.097 22.711,25.106 22.722,25.115 C22.733,25.124 22.741,25.134 22.745,25.145 C22.749,25.156 22.752,25.168 22.752,25.181 C22.752,25.211 22.74,25.235 22.718,25.252 C22.695,25.27 22.665,25.278 22.626,25.278 C22.596,25.278 22.568,25.272 22.543,25.26 C22.517,25.247 22.493,25.231 22.471,25.21 L22.427,25.257 C22.451,25.28 22.479,25.299 22.513,25.314 C22.546,25.328 22.583,25.336 22.623,25.336 C22.654,25.336 22.681,25.332 22.705,25.324 C22.729,25.316 22.749,25.304 22.766,25.29 C22.783,25.276 22.795,25.26 22.804,25.24 C22.813,25.221 22.817,25.2 22.817,25.178" id="Fill-7" fill="#1B5168"></path>
                    <path d="M23.422,25.327 L23.422,24.759 L23.351,24.759 L23.212,25.099 C23.209,25.107 23.205,25.116 23.201,25.126 C23.197,25.137 23.193,25.147 23.189,25.157 C23.185,25.168 23.181,25.177 23.178,25.187 C23.175,25.196 23.172,25.203 23.17,25.209 C23.169,25.203 23.166,25.196 23.163,25.187 C23.159,25.178 23.156,25.168 23.152,25.158 C23.148,25.148 23.144,25.138 23.14,25.127 C23.136,25.117 23.132,25.108 23.129,25.099 L22.991,24.759 L22.919,24.759 L22.919,25.327 L22.981,25.327 L22.981,24.882 C22.983,24.887 22.985,24.894 22.987,24.901 C22.99,24.909 22.993,24.917 22.996,24.926 C22.999,24.934 23.002,24.943 23.005,24.952 C23.009,24.961 23.012,24.969 23.015,24.976 L23.169,25.342 L23.325,24.976 C23.328,24.968 23.331,24.96 23.335,24.951 C23.338,24.943 23.341,24.934 23.345,24.926 C23.348,24.917 23.351,24.909 23.353,24.901 C23.356,24.894 23.358,24.887 23.36,24.882 L23.36,25.327 L23.422,25.327" id="Fill-8" fill="#1B5168"></path>
                    <path d="M12.967,23.753 C12.869,23.093 12.603,22.935 12.072,22.701 C12.474,22.465 12.721,22.12 12.721,21.645 C12.721,20.698 11.944,20.311 11.097,20.311 L8.731,20.311 L8.731,25.343 L11.075,25.343 C12.076,25.343 13.137,24.905 12.967,23.753 L12.967,23.753 Z M9.801,21.273 L11.031,21.273 C11.799,21.273 11.826,22.346 11.079,22.346 L9.801,22.346 L9.801,21.273 L9.801,21.273 Z M11.172,24.392 L9.801,24.392 L9.801,23.244 L11.172,23.244 C12.181,23.244 12.119,24.392 11.172,24.392 L11.172,24.392 Z" id="Fill-9" fill="#1B5168"></path>
                    <path d="M17.665,23.753 C17.567,23.093 17.301,22.935 16.77,22.701 C17.172,22.465 17.419,22.12 17.419,21.645 C17.419,20.698 16.642,20.311 15.795,20.311 L13.429,20.311 L13.429,25.343 L15.773,25.343 C16.774,25.343 17.835,24.905 17.665,23.753 L17.665,23.753 Z M14.499,21.273 L15.729,21.273 C16.497,21.273 16.524,22.346 15.777,22.346 L14.499,22.346 L14.499,21.273 L14.499,21.273 Z M15.87,24.392 L14.499,24.392 L14.499,23.244 L15.87,23.244 C16.878,23.244 16.817,24.392 15.87,24.392 L15.87,24.392 Z" id="Fill-10" fill="#1B5168"></path>
                    <path d="M22.362,23.753 C22.265,23.093 21.999,22.935 21.467,22.701 C21.87,22.465 22.116,22.12 22.116,21.645 C22.116,20.698 21.34,20.311 20.493,20.311 L18.127,20.311 L18.127,25.343 L20.471,25.343 C21.472,25.343 22.533,24.905 22.362,23.753 L22.362,23.753 Z M19.197,21.273 L20.426,21.273 C21.195,21.273 21.222,22.346 20.475,22.346 L19.197,22.346 L19.197,21.273 L19.197,21.273 Z M20.568,24.392 L19.197,24.392 L19.197,23.244 L20.568,23.244 C21.576,23.244 21.515,24.392 20.568,24.392 L20.568,24.392 Z" id="Fill-11" fill="#1B5168"></path>
                    <path d="M39.167,10.85 C38.881,10.521 38.431,10.218 38.006,10.103 C37.822,10.052 37.616,10.027 37.39,10.027 C37.072,10.027 36.781,10.085 36.518,10.201 C36.255,10.317 36.028,10.479 35.839,10.687 C35.65,10.895 35.502,11.145 35.396,11.436 C35.29,11.727 35.237,12.048 35.237,12.399 C35.237,12.762 35.287,13.09 35.389,13.381 C35.491,13.672 35.635,13.921 35.822,14.127 C36.009,14.332 36.231,14.491 36.49,14.603 C36.749,14.715 37.037,14.771 37.355,14.771 C37.942,14.771 38.958,14.45 39.248,13.878 L38.558,13.267 C38.362,13.579 37.75,13.857 37.383,13.857 C37.203,13.857 37.042,13.82 36.898,13.746 C36.755,13.671 36.634,13.568 36.535,13.437 C36.436,13.305 36.361,13.151 36.31,12.974 C36.259,12.796 36.234,12.605 36.234,12.399 C36.234,12.184 36.259,11.988 36.31,11.811 C36.361,11.633 36.435,11.48 36.531,11.351 C36.628,11.222 36.749,11.121 36.892,11.049 C37.035,10.976 37.196,10.94 37.376,10.94 C37.74,10.94 38.255,11.181 38.495,11.498 L39.167,10.85" id="Fill-12" fill="#FFFFFF"></path>
                    <path d="M52.437,14.698 L52.437,13.798 L49.938,13.798 L49.938,12.688 L51.95,12.688 L51.95,11.794 L49.938,11.794 L49.938,10.999 L52.334,10.999 L52.334,10.099 L48.969,10.099 L48.969,14.698 L52.437,14.698" id="Fill-13" fill="#FFFFFF"></path>
                    <path d="M56.903,11.331 C56.781,11.04 56.612,10.802 56.397,10.618 C56.183,10.434 55.929,10.302 55.636,10.221 C55.343,10.14 55.023,10.099 54.677,10.099 L53.16,10.099 L53.16,14.698 L54.608,14.698 C54.917,14.698 55.221,14.654 55.518,14.567 C55.816,14.479 56.081,14.342 56.314,14.156 C56.548,13.97 56.735,13.731 56.875,13.44 C57.016,13.149 57.086,12.802 57.086,12.399 C57.086,11.978 57.025,11.622 56.903,11.331 L56.903,11.331 Z M55.999,12.974 C55.939,13.147 55.849,13.294 55.73,13.417 C55.61,13.54 55.456,13.635 55.269,13.703 C55.082,13.771 54.862,13.805 54.608,13.805 L54.13,13.805 L54.13,10.993 L54.643,10.993 C55.155,10.993 55.524,11.11 55.75,11.344 C55.976,11.579 56.09,11.93 56.09,12.399 C56.09,12.609 56.06,12.801 55.999,12.974 L55.999,12.974 Z" id="Fill-14" fill="#FFFFFF"></path>
                    <path d="M58.024,14.698 L58.993,14.698 L58.993,10.099 L58.024,10.099 L58.024,14.698 Z" id="Fill-15" fill="#FFFFFF"></path>
                    <path d="M63.511,11.006 L63.511,10.099 L59.758,10.099 L59.758,11.006 L61.15,11.006 L61.15,14.698 L62.119,14.698 L62.119,11.006 L63.511,11.006" id="Fill-16" fill="#FFFFFF"></path>
                    <path d="M72.071,11.331 C71.949,11.04 71.781,10.802 71.566,10.618 C71.351,10.434 71.097,10.302 70.805,10.221 C70.511,10.14 70.192,10.099 69.846,10.099 L68.329,10.099 L68.329,14.698 L69.776,14.698 C70.085,14.698 70.389,14.654 70.687,14.567 C70.985,14.479 71.25,14.342 71.483,14.156 C71.716,13.97 71.903,13.731 72.044,13.44 C72.184,13.149 72.255,12.802 72.255,12.399 C72.255,11.978 72.194,11.622 72.071,11.331 L72.071,11.331 Z M71.168,12.974 C71.108,13.147 71.018,13.294 70.898,13.417 C70.778,13.54 70.624,13.635 70.437,13.703 C70.251,13.771 70.03,13.805 69.776,13.805 L69.298,13.805 L69.298,10.993 L69.811,10.993 C70.323,10.993 70.692,11.11 70.919,11.344 C71.145,11.579 71.258,11.93 71.258,12.399 C71.258,12.609 71.228,12.801 71.168,12.974 L71.168,12.974 Z" id="Fill-17" fill="#FFFFFF"></path>
                    <path d="M67.603,14.698 L67.603,13.798 L65.103,13.798 L65.103,12.688 L67.114,12.688 L67.114,11.794 L65.103,11.794 L65.103,10.999 L67.499,10.999 L67.499,10.099 L64.134,10.099 L64.134,14.698 L67.603,14.698" id="Fill-18" fill="#FFFFFF"></path>
                    <path d="M59.492,20.637 L59.492,19.737 L56.993,19.737 L56.993,18.626 L59.004,18.626 L59.004,17.732 L56.993,17.732 L56.993,16.938 L59.389,16.938 L59.389,16.038 L56.023,16.038 L56.023,20.637 L59.492,20.637" id="Fill-19" fill="#FFFFFF"></path>
                    <path d="M43.642,10.85 C43.356,10.521 42.906,10.218 42.482,10.103 C42.297,10.052 42.092,10.027 41.866,10.027 C41.547,10.027 41.256,10.085 40.993,10.201 C40.73,10.317 40.504,10.479 40.315,10.687 C40.125,10.895 39.978,11.145 39.871,11.436 C39.765,11.727 39.712,12.048 39.712,12.399 C39.712,12.762 39.763,13.09 39.864,13.381 C39.966,13.672 40.11,13.921 40.297,14.127 C40.484,14.332 40.707,14.491 40.965,14.603 C41.224,14.715 41.512,14.771 41.831,14.771 C42.418,14.771 43.434,14.45 43.723,13.878 L43.034,13.267 C42.838,13.579 42.226,13.857 41.859,13.857 C41.678,13.857 41.517,13.82 41.374,13.746 C41.231,13.671 41.11,13.568 41.01,13.437 C40.911,13.305 40.836,13.151 40.785,12.974 C40.734,12.796 40.709,12.605 40.709,12.399 C40.709,12.184 40.734,11.988 40.785,11.811 C40.836,11.633 40.91,11.48 41.007,11.351 C41.104,11.222 41.224,11.121 41.367,11.049 C41.51,10.976 41.672,10.94 41.852,10.94 C42.216,10.94 42.73,11.181 42.97,11.498 L43.642,10.85" id="Fill-20" fill="#FFFFFF"></path>
                    <path d="M39.492,18.521 C39.366,18.355 39.208,18.23 39.019,18.147 C39.177,18.055 39.299,17.932 39.387,17.779 C39.475,17.625 39.519,17.45 39.519,17.253 C39.519,16.859 39.384,16.558 39.114,16.35 C38.844,16.141 38.48,16.038 38.021,16.038 L35.856,16.038 L35.856,20.637 L38.001,20.637 C38.253,20.637 38.482,20.605 38.689,20.541 C38.896,20.478 39.072,20.384 39.218,20.259 C39.365,20.134 39.478,19.979 39.559,19.792 C39.64,19.606 39.68,19.393 39.68,19.152 C39.68,18.898 39.618,18.687 39.492,18.521 L39.492,18.521 Z M36.78,16.885 L37.981,16.885 C38.187,16.885 38.336,16.922 38.426,16.997 C38.516,17.071 38.561,17.181 38.561,17.325 C38.561,17.452 38.521,17.556 38.443,17.637 C38.364,17.719 38.226,17.759 38.028,17.759 L36.78,17.759 L36.78,16.885 L36.78,16.885 Z M38.544,19.602 C38.434,19.709 38.264,19.763 38.034,19.763 L36.78,19.763 L36.78,18.574 L38.034,18.574 C38.484,18.574 38.709,18.771 38.709,19.165 C38.709,19.349 38.654,19.494 38.544,19.602 L38.544,19.602 Z" id="Fill-21" fill="#FFFFFF"></path>
                    <path d="M44.135,18.607 L44.135,16.038 L43.191,16.038 L43.191,18.62 C43.191,18.992 43.105,19.283 42.932,19.493 C42.758,19.704 42.521,19.809 42.22,19.809 C41.919,19.809 41.682,19.702 41.511,19.487 C41.341,19.272 41.255,18.979 41.255,18.607 L41.255,16.038 L40.311,16.038 L40.311,18.62 C40.311,18.957 40.357,19.255 40.449,19.513 C40.541,19.771 40.671,19.989 40.837,20.167 C41.003,20.344 41.205,20.479 41.441,20.571 C41.677,20.663 41.936,20.709 42.22,20.709 C42.822,20.709 43.292,20.526 43.63,20.16 C43.967,19.794 44.135,19.277 44.135,18.607" id="Fill-22" fill="#FFFFFF"></path>
                    <path d="M48.476,19.244 C48.476,18.994 48.429,18.788 48.334,18.626 C48.24,18.464 48.117,18.331 47.967,18.225 C47.816,18.12 47.647,18.038 47.461,17.979 C47.274,17.92 47.086,17.868 46.897,17.825 C46.709,17.781 46.553,17.741 46.432,17.706 C46.311,17.671 46.214,17.634 46.142,17.595 C46.07,17.555 46.019,17.51 45.99,17.46 C45.961,17.41 45.946,17.347 45.946,17.273 C45.946,17.22 45.958,17.17 45.98,17.122 C46.002,17.074 46.041,17.03 46.095,16.99 C46.149,16.951 46.218,16.919 46.304,16.895 C46.389,16.871 46.495,16.859 46.621,16.859 C46.837,16.859 47.031,16.899 47.204,16.98 C47.378,17.061 47.54,17.179 47.693,17.332 L48.375,16.688 C48.15,16.46 47.899,16.283 47.623,16.156 C47.346,16.029 47.023,15.965 46.655,15.965 C46.421,15.965 46.202,15.996 45.997,16.057 C45.792,16.119 45.614,16.207 45.461,16.324 C45.308,16.44 45.187,16.581 45.1,16.747 C45.012,16.914 44.968,17.102 44.968,17.312 C44.968,17.54 45.004,17.731 45.076,17.884 C45.148,18.037 45.249,18.164 45.38,18.265 C45.51,18.366 45.666,18.449 45.849,18.515 C46.031,18.58 46.23,18.637 46.445,18.685 C46.666,18.733 46.846,18.779 46.985,18.823 C47.125,18.867 47.231,18.913 47.305,18.961 C47.38,19.01 47.43,19.061 47.457,19.116 C47.484,19.17 47.498,19.235 47.498,19.309 C47.498,19.485 47.431,19.612 47.299,19.69 C47.166,19.769 46.958,19.809 46.675,19.809 C46.445,19.809 46.228,19.768 46.024,19.687 C45.819,19.606 45.634,19.472 45.467,19.283 L44.786,19.875 C44.966,20.133 45.218,20.337 45.542,20.486 C45.865,20.635 46.225,20.709 46.621,20.709 C46.945,20.709 47.222,20.674 47.454,20.604 C47.685,20.534 47.878,20.434 48.031,20.305 C48.184,20.176 48.296,20.021 48.368,19.842 C48.44,19.662 48.476,19.463 48.476,19.244" id="Fill-23" fill="#FFFFFF"></path>
                    <path d="M49.241,20.637 L50.185,20.637 L50.185,16.038 L49.241,16.038 L49.241,20.637 Z" id="Fill-24" fill="#FFFFFF"></path>
                    <path d="M54.991,20.637 L54.991,16.038 L54.06,16.038 L54.06,17.982 C54.06,18.048 54.062,18.129 54.064,18.225 C54.066,18.322 54.067,18.42 54.067,18.521 C54.067,18.617 54.068,18.708 54.07,18.794 C54.073,18.879 54.074,18.944 54.074,18.987 C54.042,18.926 53.994,18.846 53.929,18.748 C53.864,18.649 53.802,18.556 53.743,18.468 L52.071,16.038 L51.167,16.038 L51.167,20.637 L52.097,20.637 L52.097,18.613 C52.097,18.547 52.096,18.466 52.094,18.37 C52.092,18.274 52.09,18.177 52.09,18.081 C52.09,17.98 52.089,17.887 52.087,17.802 C52.085,17.716 52.084,17.652 52.084,17.608 C52.115,17.669 52.163,17.749 52.229,17.848 C52.294,17.946 52.356,18.039 52.415,18.127 L54.148,20.637 L54.991,20.637" id="Fill-25" fill="#FFFFFF"></path>
                    <path d="M63.349,19.244 C63.349,18.994 63.301,18.788 63.207,18.626 C63.113,18.464 62.99,18.331 62.839,18.225 C62.689,18.12 62.52,18.038 62.333,17.979 C62.146,17.92 61.959,17.868 61.77,17.825 C61.581,17.781 61.426,17.741 61.305,17.706 C61.183,17.671 61.086,17.634 61.014,17.595 C60.942,17.555 60.892,17.51 60.863,17.46 C60.833,17.41 60.819,17.347 60.819,17.273 C60.819,17.22 60.83,17.17 60.853,17.122 C60.875,17.074 60.913,17.03 60.967,16.99 C61.021,16.951 61.091,16.919 61.176,16.895 C61.262,16.871 61.367,16.859 61.493,16.859 C61.709,16.859 61.904,16.899 62.077,16.98 C62.25,17.061 62.413,17.179 62.566,17.332 L63.247,16.688 C63.022,16.46 62.771,16.283 62.495,16.156 C62.219,16.029 61.896,15.965 61.527,15.965 C61.293,15.965 61.074,15.996 60.869,16.057 C60.665,16.119 60.486,16.207 60.333,16.324 C60.18,16.44 60.06,16.581 59.972,16.747 C59.884,16.914 59.841,17.102 59.841,17.312 C59.841,17.54 59.877,17.731 59.949,17.884 C60.021,18.037 60.122,18.164 60.252,18.265 C60.383,18.366 60.539,18.449 60.721,18.515 C60.903,18.58 61.102,18.637 61.318,18.685 C61.538,18.733 61.718,18.779 61.857,18.823 C61.997,18.867 62.103,18.913 62.178,18.961 C62.252,19.01 62.303,19.061 62.33,19.116 C62.357,19.17 62.37,19.235 62.37,19.309 C62.37,19.485 62.304,19.612 62.171,19.69 C62.039,19.769 61.831,19.809 61.547,19.809 C61.318,19.809 61.101,19.768 60.896,19.687 C60.692,19.606 60.506,19.472 60.34,19.283 L59.658,19.875 C59.838,20.133 60.09,20.337 60.414,20.486 C60.738,20.635 61.098,20.709 61.493,20.709 C61.817,20.709 62.095,20.674 62.326,20.604 C62.558,20.534 62.75,20.434 62.903,20.305 C63.056,20.176 63.169,20.021 63.24,19.842 C63.312,19.662 63.349,19.463 63.349,19.244" id="Fill-26" fill="#FFFFFF"></path>
                    <path d="M67.406,19.244 C67.406,18.994 67.358,18.788 67.264,18.626 C67.169,18.464 67.047,18.331 66.896,18.225 C66.746,18.12 66.577,18.038 66.391,17.979 C66.204,17.92 66.016,17.868 65.827,17.825 C65.638,17.781 65.483,17.741 65.362,17.706 C65.24,17.671 65.144,17.634 65.072,17.595 C64.999,17.555 64.949,17.51 64.92,17.46 C64.891,17.41 64.876,17.347 64.876,17.273 C64.876,17.22 64.887,17.17 64.91,17.122 C64.932,17.074 64.971,17.03 65.024,16.99 C65.078,16.951 65.148,16.919 65.233,16.895 C65.319,16.871 65.424,16.859 65.55,16.859 C65.766,16.859 65.961,16.899 66.134,16.98 C66.307,17.061 66.47,17.179 66.623,17.332 L67.304,16.688 C67.079,16.46 66.829,16.283 66.553,16.156 C66.276,16.029 65.953,15.965 65.584,15.965 C65.35,15.965 65.131,15.996 64.926,16.057 C64.722,16.119 64.543,16.207 64.39,16.324 C64.237,16.44 64.117,16.581 64.029,16.747 C63.941,16.914 63.898,17.102 63.898,17.312 C63.898,17.54 63.933,17.731 64.006,17.884 C64.078,18.037 64.179,18.164 64.309,18.265 C64.44,18.366 64.596,18.449 64.778,18.515 C64.96,18.58 65.159,18.637 65.375,18.685 C65.595,18.733 65.775,18.779 65.914,18.823 C66.054,18.867 66.161,18.913 66.235,18.961 C66.309,19.01 66.36,19.061 66.387,19.116 C66.414,19.17 66.427,19.235 66.427,19.309 C66.427,19.485 66.361,19.612 66.228,19.69 C66.096,19.769 65.888,19.809 65.604,19.809 C65.375,19.809 65.158,19.768 64.953,19.687 C64.749,19.606 64.563,19.472 64.397,19.283 L63.715,19.875 C63.895,20.133 64.147,20.337 64.471,20.486 C64.795,20.635 65.155,20.709 65.55,20.709 C65.874,20.709 66.152,20.674 66.384,20.604 C66.615,20.534 66.807,20.434 66.96,20.305 C67.113,20.176 67.226,20.021 67.298,19.842 C67.37,19.662 67.406,19.463 67.406,19.244" id="Fill-27" fill="#FFFFFF"></path>
                    <path d="M33.233,10.099 L32.291,10.099 L30.435,14.698 L31.474,14.698 L31.855,13.673 L33.627,13.673 L34.008,14.698 L35.074,14.698 L33.233,10.099 L33.233,10.099 Z M32.187,12.8 L32.499,11.965 C32.55,11.829 32.597,11.698 32.641,11.571 C32.685,11.444 32.718,11.337 32.741,11.249 C32.764,11.337 32.798,11.444 32.841,11.571 C32.885,11.698 32.933,11.829 32.983,11.965 L33.295,12.8 L32.187,12.8 L32.187,12.8 Z" id="Fill-28" fill="#FFFFFF"></path>
                    <path d="M47.288,12.951 C47.598,12.837 47.942,12.63 48.097,12.409 C48.252,12.187 48.329,11.904 48.329,11.558 C48.329,11.313 48.285,11.099 48.197,10.917 C48.11,10.735 47.99,10.583 47.837,10.461 C47.685,10.338 47.507,10.247 47.304,10.188 C47.101,10.129 46.886,10.099 46.66,10.099 L44.403,10.099 L44.403,14.698 L45.372,14.698 L45.372,13.043 L46.236,13.082 L47.249,14.698 L48.364,14.698 L47.288,12.951 L47.288,12.951 Z M46.639,12.176 L45.372,12.176 L45.372,10.993 L46.639,10.993 C46.856,10.993 47.026,11.038 47.148,11.127 C47.271,11.217 47.332,11.367 47.332,11.577 C47.332,11.976 47.101,12.176 46.639,12.176 L46.639,12.176 Z" id="Fill-29" fill="#FFFFFF"></path>
                </g>
            </g>
        </g>
    </g>
</svg>