<?xml version="1.0" encoding="utf-8"?>
<!-- Generator: Adobe Illustrator 19.0.0, SVG Export Plug-In . SVG Version: 6.00 Build 0)  -->
<!DOCTYPE svg PUBLIC "-//W3C//DTD SVG 1.1//EN" "http://www.w3.org/Graphics/SVG/1.1/DTD/svg11.dtd">
<svg version="1.1" id="Layer_1" xmlns="http://www.w3.org/2000/svg" xmlns:xlink="http://www.w3.org/1999/xlink" x="0px" y="0px"
	 viewBox="0 0 318 64" enable-background="new 0 0 318 64" xml:space="preserve">
<g id="XMLID_53_">
	<path id="XMLID_26_" fill="#FAD089" d="M7.378,26.621c0.121,0.067,0.328,0.156,0.329,0.235c0,0.626,0.485,0.616,0.867,0.631
		c0.952,0.037,1.907,0.012,2.861,0.012c0.002,0.017,0.003,0.034,0.005,0.051c1.003-0.08,2.013-0.11,3.005-0.26
		c0.581-0.088,1.171-0.297,1.689-0.577c0.63-0.341,0.704-1.042,0.212-1.365c-1.387-0.909-2.865-1.55-4.576-1.358
		c-0.473,0.053-0.933,0.213-1.404,0.294c-0.469,0.08-0.96,0.07-1.415,0.194c-0.685,0.187-1.242,0.57-1.698,1.157
		C6.876,26.119,6.839,26.323,7.378,26.621z"/>
	<path id="XMLID_25_" fill="#FAD089" d="M47.547,12.008c-0.018,0.566,0.269,0.764,0.805,0.715c0.36-0.042,0.731-0.043,1.078-0.133
		c0.538-0.14,1.01-0.361,1.4-0.836c0.807-0.982,1.719-1.877,2.559-2.833c0.222-0.253,0.392-0.582,0.488-0.905
		c0.047-0.159-0.077-0.493-0.216-0.56c-0.377-0.183-0.478-0.359-0.325-0.776c0.059-0.161-0.14-0.572-0.301-0.625
		c-0.373-0.122-0.803-0.159-1.193-0.107c-0.351,0.047-0.703,0.221-1.011,0.412c-0.301,0.186-0.626,0.415-0.803,0.708
		c-0.717,1.187-1.384,2.401-2.356,3.415c-0.578,0.602-0.555,0.628-0.171,1.391C47.523,11.916,47.549,11.964,47.547,12.008z"/>
	<path id="XMLID_24_" fill="#FAD089" d="M32.722,7.22c0.273,0.078,0.558,0.115,0.851,0.17c0.486-0.101,0.981-0.166,1.451-0.312
		c0.55-0.17,0.961-0.453,0.972-1.158c0.011-0.697,0.141-1.397,0.274-2.085c0.192-0.989,0.523-1.928,1.145-2.748
		c0.07-0.093,0.043-0.381-0.042-0.448c-0.312-0.247-0.606-0.565-1.093-0.429c-0.349,0.097-0.72,0.113-1.076,0.186
		c-0.904,0.185-1.565,0.674-1.873,1.568c-0.364,1.056-0.69,2.127-1.081,3.173c-0.249,0.666,0.053,1.243,0.186,1.849
		C32.458,7.082,32.61,7.188,32.722,7.22z"/>
	<path id="XMLID_23_" fill="#FAD089" d="M24.535,8.255c0.314,0.47,0.604,0.933,1.222,1.073c0.167,0.038,0.289,0.268,0.436,0.405
		c0.141,0.131,0.289,0.254,0.434,0.381c0.151-0.191,0.433-0.387,0.426-0.571c-0.013-0.343,0.17-0.303,0.37-0.353
		c0.399-0.098,0.813-0.177,1.184-0.345c0.483-0.219,0.619-0.786,0.366-1.259c-0.27-0.505-0.526-1.017-0.813-1.511
		c-0.296-0.51-0.632-0.996-0.934-1.502c-0.455-0.762-1.209-0.826-2.186-0.919c-0.276,0.134-0.701,0.356-1.14,0.545
		c-0.421,0.181-0.814,0.472-0.791,0.911c0.03,0.578,0.174,1.183,0.418,1.708C23.767,7.341,24.209,7.768,24.535,8.255z"/>
	<path id="XMLID_22_" fill="#FAD089" d="M10.603,17.993c-0.275,0.537-0.069,0.884,0.542,0.929c0.379,0.027,0.786,0.041,1.122,0.191
		c0.879,0.39,1.757,0.615,2.732,0.489c1.066-0.138,2.139-0.214,2.948-1.047c0.419-0.432,0.253-1.093-0.301-1.331
		c-0.526-0.226-1.049-0.465-1.554-0.737c-0.931-0.501-1.898-0.85-3.041-0.802c-1.041-0.148-1.751,0.512-2.445,1.231
		c-0.242,0.25-0.257,0.437-0.043,0.701C10.632,17.701,10.652,17.896,10.603,17.993z"/>
	<path id="XMLID_21_" fill="#FAD089" d="M17.868,12.615c0.305,0.333,0.497,0.864,1.098,0.795c1-0.115,2.006-0.199,2.995-0.374
		c0.426-0.075,0.756-0.397,0.843-0.885c0.072-0.404-0.116-0.649-0.42-0.886c-0.345-0.268-0.697-0.557-0.949-0.907
		c-0.583-0.808-1.263-1.459-2.282-1.61c-1.047-0.156-2.104-0.224-3.075,0.331c-0.214,0.122-0.371,0.345-0.585,0.551
		c0.158,0.3,0.228,0.512,0.361,0.67C16.514,11.081,17.177,11.861,17.868,12.615z"/>
	<path id="XMLID_20_" fill="#FAD089" d="M41.66,8.895c0.157-0.024,0.316-0.043,0.469-0.081c0.822-0.206,1.586-0.484,1.986-1.338
		c0.152-0.325,0.341-0.677,0.612-0.892c0.705-0.56,0.729-1.421,1.074-2.062c-0.046-0.532-0.311-0.795-0.704-0.973
		c-0.131-0.059-0.277-0.158-0.343-0.278c-0.314-0.57-0.685-0.74-1.34-0.59c-0.201,0.046-0.415,0.041-0.61,0.102
		c-0.593,0.184-1.137,0.428-1.305,1.123c-0.308,1.272-0.633,2.54-0.948,3.81C40.358,8.491,40.856,9.018,41.66,8.895z"/>
	<path id="XMLID_19_" fill="#FAD089" d="M56.347,22.182c-0.016,0.5-0.258,0.821-0.551,1.187c-0.185,0.232-0.298,0.699-0.187,0.948
		c0.16,0.359,0.597,0.404,1.01,0.294c0.95-0.253,1.903-0.492,2.858-0.721c0.32-0.077,0.671-0.058,0.973-0.174
		c0.579-0.221,1.143-0.487,1.694-0.773c0.698-0.362,0.832-0.792,0.576-1.614c-0.025-0.079,0.005-0.183,0.032-0.268
		c0.209-0.675-0.117-1.116-1.08-1.138c-0.437,0.12-1.096,0.3-1.753,0.485c-0.927,0.261-1.928,0.282-2.762,0.853
		C56.802,21.501,56.363,21.701,56.347,22.182z"/>
	<path id="XMLID_18_" fill="#FAD089" d="M58.42,28.704c-0.911,0.28-1.684,0.783-1.879,1.852c-0.084,0.456,0.144,0.703,0.506,0.784
		c0.902,0.202,1.819,0.346,2.729,0.513c0.809,0.131,1.462-0.283,2.138-0.599c0.736-0.343,1.139-0.935,1.263-1.732
		c0.061-0.399-0.059-0.685-0.483-0.727C61.271,28.655,59.839,28.268,58.42,28.704z"/>
	<path id="XMLID_17_" fill="#FAD089" d="M53.195,17.465c0.14,0.028,0.287,0.016,0.431,0.024c0.016,0.038,0.031,0.076,0.047,0.114
		c0.573-0.221,1.21-0.348,1.706-0.684c0.88-0.597,1.653-1.349,2.513-1.98c0.629-0.462,0.736-1.196,1.072-1.806
		c0.207-0.376-0.157-0.583-0.452-0.706c-0.52-0.218-1.064-0.17-1.522,0.13c-0.973,0.637-1.986,1.244-2.841,2.02
		c-0.601,0.546-1.005,1.329-1.423,2.049C52.49,17.029,52.726,17.371,53.195,17.465z"/>
	<path id="XMLID_54_" fill="#FAD089" d="M68.274,48.419c-0.218-0.235-0.279-0.464-0.12-0.732c0.208-0.35,0.046-0.599-0.201-0.826
		c-0.2-0.184-0.405-0.366-0.622-0.529c-0.414-0.31-0.867-0.574-1.25-0.918c-0.392-0.352-0.973-0.75-1.016-1.174
		c-0.067-0.657-0.389-1-0.802-1.378c-0.381-0.349-0.748-0.715-1.103-1.09c-0.599-0.634-1.116-1.366-1.79-1.906
		c-1.241-0.994-2.568-1.881-3.864-2.806c-1.077-0.769-2.135-1.565-3.246-2.281c-0.954-0.615-0.935-0.564-0.743-1.653
		c0.152-0.861,0.121-1.753,0.259-2.618c0.348-2.173,0.165-4.297-0.534-6.369c-0.241-0.715-0.587-1.411-0.982-2.055
		c-0.583-0.949-1.19-1.897-1.902-2.751c-0.993-1.191-2.093-2.291-3.142-3.435c-0.226-0.246-0.403-0.544-0.654-0.759
		c-1.24-1.06-2.531-2.048-4.035-2.717c-0.902-0.401-1.792-0.842-2.723-1.156c-0.689-0.232-1.433-0.309-2.159-0.413
		c-0.802-0.115-1.616-0.286-2.415-0.243c-1.208,0.064-2.408,0.287-3.61,0.449c-2.07,0.28-3.845,1.292-5.585,2.343
		c-0.844,0.51-1.575,1.203-2.382,1.779c-0.743,0.53-1.238,1.302-1.886,1.925c-0.783,0.753-1.45,1.734-1.864,2.74
		c-0.664,1.613-1.078,3.329-1.598,5.001c-0.547,1.757-1.022,3.529-1.194,5.371c-0.011,0.116-0.122,0.259-0.227,0.323
		c-0.438,0.267-0.906,0.485-1.335,0.764c-1.447,0.942-2.93,1.837-4.306,2.875c-1.116,0.841-2.061,1.906-3.148,2.789
		c-1.018,0.828-1.836,1.838-2.734,2.773c-0.504,0.524-0.904,1.151-1.325,1.75c-0.568,0.81-1.1,1.646-1.668,2.456
		c-0.378,0.539-0.89,0.974-0.651,1.783c0.204,0.688,0.548,0.927,1.227,0.616c0.663-0.303,1.326-0.605,1.992-0.901
		c1.3-0.577,2.378-1.417,3.14-2.631c0.812-1.296,1.547-2.645,2.648-3.736c0.961-0.953,1.837-2.017,2.902-2.833
		c1.35-1.034,2.682-2.122,4.23-2.877c0.417-0.203,0.825-0.428,1.251-0.608c1.097-0.465,2.175-1.004,3.313-1.338
		c1.361-0.4,2.773-0.638,4.171-0.905c0.597-0.114,1.214-0.124,1.919-0.191c-0.124,0.203-0.183,0.312-0.253,0.413
		c-0.705,1.009-1.477,1.979-2.099,3.037c-0.627,1.066-1.089,2.229-1.65,3.335c-0.604,1.189-0.908,2.431-0.859,3.772
		c0.049,1.356,0.517,2.426,1.81,3.023c0.158,0.073,0.289,0.201,0.445,0.28c0.737,0.372,1.445,0.92,2.226,1.064
		c1.615,0.297,3.269,0.384,4.909,0.546c1.432,0.142,2.923,0.066,4.29,0.44c3.76,1.031,5.612,4.727,5.638,8.123
		c0.009,1.153-0.323,2.278-0.762,3.349c-0.646,1.574-1.635,2.892-3.043,3.867c-0.545,0.378-0.804,0.925-0.962,1.525
		c-0.042,0.158,0.049,0.458,0.174,0.53c0.293,0.17,0.657,0.363,0.966,0.326c0.553-0.066,1.086-0.295,1.645-0.461
		c0.233,0.602,0.769,0.206,1.07,0.135c0.574-0.134,1.093-0.503,1.636-0.772c0.104-0.052,0.211-0.096,0.403-0.183
		c-0.111,0.644-0.736,1.108-0.315,1.733c0.848,0.081,1.362-0.598,2.041-0.904c0.076-0.034,0.123-0.144,0.173-0.226
		c0.476-0.775,0.942-1.556,1.425-2.327c0.272-0.434,0.568-0.853,0.9-1.346c0.086,0.167,0.157,0.243,0.158,0.319
		c0.011,0.806-0.009,1.613,0.024,2.418c0.013,0.314,0.173,0.617,0.051,0.948c-0.015,0.041,0.154,0.217,0.205,0.204
		c0.27-0.068,0.53-0.177,0.793-0.272c0.154-0.055,0.309-0.11,0.463-0.165c0.042,0.03,0.084,0.06,0.125,0.09
		c0.261-0.497,0.627-0.967,0.759-1.497c0.223-0.892,0.332-1.817,0.429-2.734c0.145-1.36,0.28-2.724,0.341-4.09
		c0.063-1.417,0.01-2.839,0.051-4.257c0.042-1.451-0.482-2.685-1.372-3.779c-0.605-0.742-1.227-1.478-1.906-2.151
		c-0.607-0.6-1.256-1.183-1.971-1.641c-1.702-1.091-3.7-1.337-5.626-1.623c-2.411-0.357-4.86-0.469-7.298-0.614
		c-0.949-0.056-1.725-0.283-2.366-1.029c-0.403-0.469-0.578-0.944-0.614-1.552c-0.065-1.123,0.56-2.018,0.894-3.006
		c0.286-0.846,0.67-1.657,0.957-2.503c0.31-0.918,0.906-1.574,1.714-2.058c0.14-0.084,0.343-0.127,0.503-0.102
		c1.465,0.231,2.937,0.438,4.39,0.737c1.523,0.314,2.955,0.888,4.382,1.531c1.895,0.854,3.596,2.014,5.367,3.061
		c1.097,0.648,2.123,1.433,3.121,2.231c1.832,1.466,3.62,2.988,5.426,4.486c0.529,0.439,1.079,0.855,1.588,1.316
		c1.348,1.222,2.671,2.473,4.021,3.694c1.234,1.115,2.487,2.21,3.741,3.301c0.132,0.115,0.383,0.257,0.495,0.205
		c0.477-0.223,0.993-0.434,1.178-1.009c0.029-0.09,0.052-0.183,0.096-0.265C68.837,49.048,68.848,49.04,68.274,48.419z
		 M48.528,31.391c-0.768-0.361-1.457-0.649-2.111-1.001c-1.461-0.786-3.076-1.071-4.649-1.5c-1.2-0.327-2.38-0.728-3.583-1.043
		c-2.258-0.591-4.508-1.193-6.88-1.214c-1.554-0.013-3.096,0.077-4.602,0.38c-1.522,0.306-3,0.831-4.498,1.262
		c-0.091,0.026-0.179,0.062-0.421,0.146c0.087-1.131,0.056-2.203,0.27-3.225c0.501-2.394,1.784-4.405,3.278-6.309
		c0.826-1.052,1.713-2.032,2.789-2.812c0.719-0.521,1.501-0.97,2.293-1.376c1.793-0.919,3.714-1.409,5.728-1.281
		c1.099,0.07,2.209,0.235,3.15,0.983c0.773,0.615,1.689,1.052,2.458,1.672c1.232,0.992,2.427,2.036,3.577,3.123
		c0.922,0.871,1.415,2.05,1.943,3.178c0.654,1.397,0.858,2.911,0.991,4.43c0.111,1.277,0.181,2.557,0.264,3.837
		C48.539,30.856,48.528,31.073,48.528,31.391z"/>
</g>
<g id="XMLID_28_">
	<path id="XMLID_51_" fill="#FFFFFF" d="M105.746,22.637h-6.354v21.805c0,1.783-1.463,3.246-3.291,3.246
		c-1.783,0-3.246-1.463-3.246-3.246V22.637h-6.354c-1.554,0-2.834-1.28-2.834-2.926c0-1.509,1.28-2.789,2.834-2.789h19.245
		c1.509,0,2.789,1.28,2.789,2.88C108.535,21.357,107.255,22.637,105.746,22.637z"/>
	<path id="XMLID_49_" fill="#FFFFFF" d="M119.507,30.499c-1.783,0.229-3.474,0.96-4.526,2.331v11.977c0,1.6-1.28,2.88-2.834,2.88
		h-0.092c-1.6,0-2.88-1.28-2.88-2.88V27.894c0-1.554,1.28-2.834,2.972-2.834c1.554,0,2.834,1.28,2.834,2.834v0.457
		c1.097-1.463,2.56-3.2,4.754-3.2c1.691,0,2.56,1.051,2.56,2.377C122.296,29.265,121.106,30.271,119.507,30.499z"/>
	<path id="XMLID_47_" fill="#FFFFFF" d="M143.415,47.688c-1.6,0-2.88-1.28-2.88-2.88v-0.183c-1.508,1.691-4.16,3.337-7.771,3.337
		c-4.846,0-7.131-2.651-7.131-6.948v-13.12c0-1.554,1.28-2.834,2.971-2.834c1.554,0,2.834,1.28,2.834,2.834v10.834
		c0,3.063,1.6,4.069,4.069,4.069c2.24,0,4.023-1.234,5.028-2.514V27.894c0-1.554,1.28-2.834,2.972-2.834
		c1.554,0,2.834,1.28,2.834,2.834v16.914C146.341,46.408,145.06,47.688,143.415,47.688z"/>
	<path id="XMLID_44_" fill="#FFFFFF" d="M170.388,38.225h-13.623c0.366,2.789,2.606,5.12,6.354,5.12
		c1.234,0,2.926-0.366,4.297-1.097c0.366-0.183,0.778-0.274,1.143-0.274c1.234,0,2.469,0.96,2.469,2.331
		c0,2.606-5.623,3.657-8.549,3.657c-6.72,0-11.794-4.525-11.794-11.611c0-6.4,4.708-11.565,11.428-11.565
		c4.983,0,8.777,2.88,10.332,7.451c0.32,1.006,0.64,2.24,0.64,3.337C173.084,36.991,171.896,38.225,170.388,38.225z M162.113,29.402
		c-3.611,0-5.165,2.697-5.44,4.892h10.88C167.416,32.191,165.953,29.402,162.113,29.402z"/>
	<path id="XMLID_41_" fill="#FFFFFF" d="M201.017,47.688c-1.371,0-2.652-0.823-3.154-2.149l-1.189-3.291h-13.074l-1.234,3.291
		c-0.503,1.326-1.783,2.149-3.199,2.149c-2.057,0-3.429-1.737-3.429-3.474c0-0.411,0.045-0.823,0.228-1.234l8.914-22.902
		c0.778-2.057,2.834-3.429,4.983-3.429c2.331-0.183,4.663,1.189,5.531,3.429l8.869,22.902c0.137,0.411,0.228,0.823,0.228,1.234
		C204.491,45.905,203.119,47.688,201.017,47.688z M190.137,23.414l-4.755,13.12h9.508L190.137,23.414z"/>
	<path id="XMLID_39_" fill="#FFFFFF" d="M225.931,45.768c-1.6,1.28-3.885,2.194-6.994,2.194c-6.811,0-11.703-4.8-11.703-11.611
		c0-6.765,4.891-11.565,11.703-11.565c3.429,0,6.628,1.234,7.589,3.017c0.182,0.32,0.274,0.686,0.274,1.051
		c0,1.554-1.463,2.468-2.743,2.468c-0.548,0-1.097-0.137-1.6-0.457c-0.96-0.594-2.103-0.914-3.246-0.914
		c-3.52,0-5.989,2.56-5.989,6.4c0,3.84,2.469,6.446,5.989,6.446c1.188,0,2.286-0.32,3.291-0.96c0.503-0.32,1.006-0.457,1.554-0.457
		c1.417,0,2.789,1.006,2.789,2.515C226.845,44.579,226.525,45.311,225.931,45.768z"/>
	<path id="XMLID_37_" fill="#FFFFFF" d="M248.742,45.768c-1.6,1.28-3.885,2.194-6.994,2.194c-6.811,0-11.703-4.8-11.703-11.611
		c0-6.765,4.892-11.565,11.703-11.565c3.429,0,6.628,1.234,7.589,3.017c0.182,0.32,0.274,0.686,0.274,1.051
		c0,1.554-1.463,2.468-2.743,2.468c-0.548,0-1.097-0.137-1.6-0.457c-0.96-0.594-2.103-0.914-3.246-0.914
		c-3.52,0-5.989,2.56-5.989,6.4c0,3.84,2.469,6.446,5.989,6.446c1.188,0,2.286-0.32,3.291-0.96c0.503-0.32,1.006-0.457,1.554-0.457
		c1.417,0,2.789,1.006,2.789,2.515C249.657,44.579,249.337,45.311,248.742,45.768z"/>
	<path id="XMLID_34_" fill="#FFFFFF" d="M264.514,47.962c-7.269,0-11.657-5.303-11.657-11.611c0-6.263,4.389-11.565,11.657-11.565
		c7.314,0,11.703,5.303,11.703,11.565C276.217,42.659,271.829,47.962,264.514,47.962z M264.514,29.951
		c-3.612,0-5.623,2.971-5.623,6.4c0,3.474,2.011,6.446,5.623,6.446c3.611,0,5.668-2.971,5.668-6.446
		C270.183,32.922,268.125,29.951,264.514,29.951z"/>
	<path id="XMLID_32_" fill="#FFFFFF" d="M290.845,30.499c-1.783,0.229-3.474,0.96-4.525,2.331v11.977c0,1.6-1.28,2.88-2.834,2.88
		h-0.092c-1.6,0-2.88-1.28-2.88-2.88V27.894c0-1.554,1.28-2.834,2.971-2.834c1.554,0,2.834,1.28,2.834,2.834v0.457
		c1.098-1.463,2.56-3.2,4.755-3.2c1.691,0,2.56,1.051,2.56,2.377C293.634,29.265,292.446,30.271,290.845,30.499z"/>
	<path id="XMLID_29_" fill="#FFFFFF" d="M315.028,47.688c-1.6,0-2.88-1.28-2.88-2.88v-0.228c-1.737,2.194-4.16,3.382-6.811,3.382
		c-5.578,0-9.783-4.205-9.783-11.565c0-7.223,4.16-11.611,9.783-11.611c2.606,0,5.074,1.143,6.811,3.383v-8.64
		c0-1.6,1.28-2.88,2.971-2.88c1.6,0,2.88,1.28,2.88,2.88v25.28C318,46.408,316.72,47.688,315.028,47.688z M312.149,32.465
		c-0.96-1.463-3.063-2.514-5.028-2.514c-3.292,0-5.578,2.606-5.578,6.445c0,3.794,2.286,6.4,5.578,6.4
		c1.965,0,4.069-1.051,5.028-2.514V32.465z"/>
</g>
</svg>
